<?xml version="1.0" encoding="utf-8"?>
<!-- Generator: Adobe Illustrator 27.4.1, SVG Export Plug-In . SVG Version: 6.00 Build 0)  -->
<svg version="1.1" id="base" xmlns="http://www.w3.org/2000/svg" xmlns:xlink="http://www.w3.org/1999/xlink" x="0px" y="0px"
	 viewBox="0 0 800 800" style="enable-background:new 0 0 800 800;" xml:space="preserve">
<style type="text/css">
	.st0{fill:#FFFFFF;}
	.st1{display:none;}
</style>
<g id="illust">
	<path class="st0" d="M395.4,677.1c-1.4,0-2.9,0.2-4.2-0.1c-4.3-0.8-8.4,0.4-12.5,1.4c-6.3,1.5-12.7,1.4-19.1,0
		c-0.4-0.1-0.7-0.2-1.1-0.3c-2.8-0.6-3.6-0.1-3.6,2.7c0,1.3-0.1,2.5,0.1,3.9c0.3,3.5-0.8,6.6-2.3,9.6c-0.7,1.4-2,2.8-3.3,3.6
		c-4.8,2.9-9.7,5.8-15.3,7.1c-6.6,1.6-13.1,3.8-19.7,5.3c-3.9,0.9-8.1,1.1-12.2,1.4c-2.7,0.2-4.6-1.5-6.3-3.2
		c-6.8-6.7-10.8-14.8-11.8-24.4c-0.5-5.5,1.9-9.2,5.9-12.2c4.5-3.4,9.2-6.6,13.9-9.7c1.7-1.1,2.4-2.3,2.6-4.3
		c0.5-4.2,1.2-8.3,1.9-12.5c0.5-2.8,1.5-5.5,2-8.3c1.1-6.3,5-10.2,10.7-11.9c5.5-1.6,11.2-2.5,16.9-3.4c2.2-0.3,4.6,0.5,6.9,0.8
		c1.6,0.2,3.3,0.5,4.9,0.4c1-0.1,2.4-0.5,3-1.3c4-5.1,9.6-8.2,14.9-11.4c5.1-3.2,10.4-6,15.8-8.8c2.4-1.2,5-1.9,7.6-2.8
		c13.8-4.8,27.1-11,40.4-17.2c7-3.2,13.8-7,20.5-10.7c5.3-2.9,10.9-3.7,16.7-4.2c3.2-0.2,6.4-0.4,9.6-1c9-1.8,16.2,1,21.5,8.5
		s9.9,15.3,10.5,24.9c0.3,4.7,0.8,9.4,1.3,14.1c0.2,2.5-0.8,4.5-2.9,5.9c-3.2,2.2-6.3,4.6-9.5,6.5c-10.7,6.3-21.3,12.4-32.1,18.4
		c-17.3,9.7-34.8,18.8-53.2,26.3c-3.6,1.5-6.8,3.6-10.3,5.3c-1.3,0.6-2.9,0.9-4.3,1.2c-1.2,0.2-2.5,0.1-3.9,0.1
		C395.4,676.9,395.4,677,395.4,677.1z M501.6,608.7c-0.3-2-0.8-4.1-0.8-6.1c0.2-5.4-2.3-10-4.7-14.4c-1.8-3.3-2.5-3.3-5.6-1.2
		c-6.6,4.7-13.1,9.4-19.8,14c-3.4,2.3-7,4.3-10.5,6.5c-5.4,3.2-10.7,6.8-16.2,9.7c-9.7,4.9-19.6,9.5-29.5,14.2
		c-0.7,0.3-1.5,0.5-2.2,0.8c-4.9,2.1-9.9,4.2-14.8,6.3c-1.9,0.8-2.8,2.2-2.1,4.3c0.5,1.7,1.2,3.4,1.5,5.2c1,4.6,2.2,9.2,2.9,13.9
		c0.4,2.8,0.8,3.3,3.6,2.2c2.9-1.2,5.6-2.5,8.5-3.7c6.3-2.8,12.7-5.3,19-8.3c4.7-2.2,9.3-5,13.9-7.5c5.5-2.9,11-5.5,16.5-8.5
		c8.3-4.6,16.4-9.6,24.6-14.4c4.2-2.5,8.5-4.8,12.7-7.2C500.7,613.2,502,611.4,501.6,608.7z M473.6,574.6c-3.2,0.4-5.6,0.2-7.6,1.1
		c-7.2,3.1-14.4,6.1-21.2,10c-11.2,6.5-22.9,11.4-34.9,16.2c-11,4.3-22.3,8-32.3,14.5c-0.8,0.5-1.9,0.8-2.9,1.2
		c-1.2,0.4-2.8,0.8-2.5,2.4c0.2,0.8,1.4,1.8,2.3,2.1c5.1,1.7,9.6,4.4,13.7,7.8c1.6,1.3,2.7,1.2,4.4,0.2c4-2.2,8.2-4.2,12.4-6.3
		c2.3-1.1,4.8-1.8,7.2-2.8c5.6-2.5,11.3-4.9,16.9-7.5c1.4-0.6,2.8-1.3,4.1-2.1c6.3-3.7,12.4-7.7,19-11c6.6-3.2,12.5-7.5,18.5-11.7
		c4-2.8,8-5.5,12-8.3c0.6-0.5,1.6-1.5,1.5-1.9c-0.3-0.8-1.2-1.7-2-1.9C479.1,575.9,476,575.2,473.6,574.6z M343.3,683.3
		c0-4.6-1.6-8.8-3.5-12.9c-2.2-4.8-3.6-5.6-8.7-4.5c-3.6,0.8-7.3,1.5-10.9,2.5c-4.5,1.2-8.9,2.4-13.3,3.8c-2.7,0.8-4.6,2.7-5.6,5.4
		c-1,2.9-2.2,5.7-3.1,8.7c-0.3,1-0.1,2.3,0.3,3.3c3.2,8.3,10.5,11.4,19.8,10.5c3.6-0.3,7.1-1,10.7-1.4
		C337.5,697.6,343.3,691.4,343.3,683.3z M364.3,669.3c1.3-0.3,3.2-1.1,5.3-1.2c3-0.2,4.2-2,4.7-4.7c0.5-3,1-6.1,1.6-9
		c0.7-3.4,0.2-4.2-3.2-5.2c-11-2.9-22.1-5.9-33.1-8.9c-4.2-1.2-8.4-2.2-12.7-3.2c-3.7-0.8-6.2,0.8-7.2,4.4c-1.2,4.5-2.3,9-3.5,13.4
		c-0.8,3.1-0.2,3.7,3,3.1c4.4-0.9,8.8-1.7,13.2-2.8c5.4-1.3,9.6,0.7,13,4.6c1.5,1.8,2.7,3.7,4.2,5.6c0.6,0.8,1.4,1.9,2.2,2
		C355.8,668.2,359.7,668.7,364.3,669.3z"/>
</g>
<g id="dj">
	<path class="st0" d="M403.8,452.8c0.1-5.3,2.9-8.1,8.5-8c5.3,0.1,8.3,3.1,8.3,8c-0.2,4.6-3.4,8-8.3,7.7
		C407.6,460.3,403.6,458.7,403.8,452.8z M412.1,457.1c1.9-0.1,4.4-2.7,4.4-4.6c0-2-2.6-4.5-4.6-4.3c-1.9,0.2-4,2.8-3.9,4.6
		C408.1,455,410.1,457.2,412.1,457.1z"/>
	<path class="st0" d="M317.3,452.2c0-1.7,0-3.3,0-5c0-1.3,0.5-2.4,2-2.3c3,0.2,6.1,0.4,9.1,1c2.2,0.5,3.3,2.2,3.4,4.6
		c0.2,2.8,0.6,5.9-2.2,7.6c-1.5,1-3.6,1.5-5.3,1.8c-6.7,0.8-6.9,0.5-6.9-6.2C317.3,453.3,317.3,452.8,317.3,452.2L317.3,452.2z
		 M321.1,453c0,2.8,0.7,3.9,2.5,3.9c2.2,0.1,4.4-2.1,4.5-4.3c0.1-2.2-1.8-4-4.1-4.1C321.9,448.6,321.1,449.8,321.1,453z"/>
	<path class="st0" d="M460.9,452.4c0-0.5,0-1,0-1.5c0-6.3,0-6.3,6.4-6c5.4,0.3,8.3,3.2,8.1,8.1c-0.2,3.9-1.8,5.9-5.6,6.6
		c-2.2,0.4-4.3,0.4-6.5,0.5c-1.5,0.1-2.4-0.7-2.4-2.2C461,456,461,454.2,460.9,452.4L460.9,452.4z M464.7,452.7
		c-0.1,3.1,0.7,4.2,2.5,4.2c2.2,0.1,4.6-2.2,4.5-4.2s-2.2-4.1-4.2-4.1C465.4,448.6,464.7,449.8,464.7,452.7z"/>
	<path class="st0" d="M456.2,452.5c0,1.5,0.2,3.1-0.1,4.6c-0.2,1-0.6,2.4-1.4,2.8c-1.4,0.6-2.8-0.1-3.6-1.4
		c-0.7-1.1-1.2-2.2-1.9-3.4c-0.6-1.1-1.5-2.2-2.7-1.3c-0.5,0.4-0.5,1.7-0.6,2.6c0,0.6,0.5,1.3,0.4,1.9c-0.2,0.7-0.9,1.5-1.5,1.7
		c-1.1,0.3-2.1-0.2-2.2-1.5c-0.1-3.9-0.1-8,0-11.9c0-0.5,0.8-1.4,1.3-1.5c1.8-0.4,3.3,0.1,4.2,1.9c0.7,1.4,1.2,2.9,2,4.1
		c0.5,0.7,1.6,0.8,2.5,1.3c0.2-0.8,0.7-1.5,0.7-2.3c0-1-0.3-2-0.5-3s-0.1-2,1.2-1.9c0.7,0.1,1.9,0.8,1.9,1.3c0.2,2,0.1,4.1,0.1,6.1
		C456.1,452.5,456.2,452.5,456.2,452.5z"/>
	<path class="st0" d="M424.6,450.6c-0.1-0.8-0.3-2.4-0.2-3.9c0.1-0.6,0.8-1.5,1.5-1.7c1.1-0.3,2.2,0.1,2.2,1.4
		c0.2,1.8,0.1,3.6,0.2,5.4c0.1,1.2,0.1,2.3,0.5,3.4c0.5,1.3,1.6,2.3,3,1.8c0.8-0.3,1.7-1.5,1.9-2.5c0.4-1.2,0.2-2.5,0.2-3.8
		s0-2.5,0.1-3.9c0.1-1.2,0.8-1.9,1.9-1.9c1.3-0.1,2.3,0.5,2.3,1.9c0,2.8,0.2,5.6-0.2,8.4c-0.3,2.9-2.2,4.6-5.1,5
		c-2.9,0.5-5.6,0-7.7-2.2c-0.5-0.6-0.7-1.6-0.8-2.5C424.5,454.2,424.6,452.7,424.6,450.6z"/>
	<path class="st0" d="M384.3,452.1c-0.1,7-5,10.3-10.1,7.6c-0.8-0.4-1.6-1.1-1.8-1.9c-0.5-2.1-1.1-4.2-1.1-6.4c0-5.2,4-8,8.9-6.3
		c1.2,0.5,2.5,1.8,3.1,3C384.1,449.5,384.2,451.3,384.3,452.1z M379.9,451.8c0,0.2,0.2-0.6-0.1-1.1c-0.5-0.8-1.3-2.2-2-2.2
		c-0.8-0.1-2,1-2.3,1.9c-0.4,1.2-0.3,2.8-0.2,4.1c0.2,1.3,0.7,2.6,2.3,2.5c1.8-0.1,2.2-1.5,2.3-2.9
		C379.9,453.6,379.9,453.1,379.9,451.8z"/>
	<path class="st0" d="M366,449.9c0.5,1.5,0.8,3.1,1.5,4.5c0.8,2.1,0.7,3.2-1,4.7c-1.5,1.2-2.5,0.8-4.1-0.2c-1.2-0.8-3-1-4.6-1.2
		c-3.1-0.3-4.2-1.5-2.9-4c1.5-2.9,3.4-5.7,5.7-8c0.9-0.9,3.6-1,4.9-0.4c0.9,0.5,1,2.8,1.4,4.3C366.5,449.8,366.3,449.9,366,449.9z
		 M362,449.5c-1.7,0.2-3.6,2.1-3.3,3.5c0.1,0.6,0.9,1.5,1.3,1.5c0.9-0.1,2.1-0.5,2.5-1.2c0.5-0.8,0.5-2.2,0.5-3.2
		C363,449.9,362.2,449.7,362,449.5z"/>
	<path class="st0" d="M388.3,452.1c0-1.3,0-2.5,0-3.9c-0.1-3.3-0.1-3.3,3.3-3.4c1.3,0,2.5-0.1,3.9,0.1c2.8,0.4,4.9,2.3,5,4.5
		c0.2,2.9-1.6,4.9-4.7,5.4c-2.3,0.4-4.3,0.8-4.2,3.9c0,0.4-1,1.2-1.5,1.2s-1.5-0.8-1.5-1.3c-0.2-2.2-0.1-4.3-0.1-6.5
		C388.3,452.1,388.3,452.1,388.3,452.1z M393.8,453.2c1-1.3,1.9-1.9,2.1-2.7c0.4-1.2-0.8-2.6-2.2-2.4c-0.8,0.2-2.1,1.2-2,1.6
		C392,450.7,392.8,451.6,393.8,453.2z"/>
	<path class="st0" d="M345,451.5c0,1.3,0,2.5,0,3.9c-0.1,2.2-0.8,3.9-3.1,4.8c-2.5,0.9-4.6,0.2-6.6-1c-0.8-0.5-0.5-1.4,0.4-1.6
		c0.8-0.2,1.8-0.2,2.6-0.3c1.9-0.2,2.6-1.2,2.5-3.1c-0.2-2.3-0.3-4.6-0.4-6.9c-0.1-1.3,0.5-2.2,2-2.2c1.6-0.1,2.4,0.8,2.4,2.3
		C345,448.6,345,450.1,345,451.5L345,451.5z"/>
</g>
<a xlink:href="https://www.instagram.com/seido_mart/" target="_blank">
<g id="seido">
	<rect x="397.8" y="397" class="st1" width="157.8" height="30.7"/>
	<rect x="402.8" y="422" class="st0" width="149.3" height="2"/>
	<path class="st0" d="M482.3,409.8c0-1.5,0-3.1,0-4.6c0-1.7,0.5-2.8,2.4-2.7c1.7,0,3.8-0.5,4.5,1.9c0.4,1.2,0.5,2.5,1.1,3.7
		c0.3,0.7,1.1,1.2,1.7,1.9c0.6-0.6,1.4-1.1,1.8-1.8c0.5-0.9,0.5-2,0.8-2.9c0.8-2.5,3.6-3.6,5.8-2.4c0.5,0.3,1.1,1.2,1.1,1.8
		c0.1,3.5,0,7-0.1,10.4c0,1.4-0.8,2.2-2.2,1.9c-1.5-0.3-1.2-1.4-1-2.5c0.3-1.7,0.5-3.5-1.4-4.3c-1.1-0.5-2.3,1.1-2.9,3.9
		c-0.2,0.5,0,1.1-0.3,1.5c-0.4,0.5-1,1.3-1.5,1.4c-0.6,0.1-1.5-0.5-1.9-1c-0.5-1-0.8-2.2-1.2-3.2c-0.3-0.8-0.5-1.8-0.8-2.5
		c-0.2-0.5-1-1-1.5-0.9s-1.2,0.8-1.2,1.2c-0.1,1.4,0,2.8,0.2,4.2c0.1,1.1,0.2,2.2-1.2,2.3c-1.5,0.2-2.1-0.8-2.1-2.1
		C482.3,413.1,482.4,411.4,482.3,409.8L482.3,409.8z"/>
	<path class="st0" d="M466.1,402.3c6.1,0,9.2,2.8,8.8,8c-0.3,4.2-4.1,7.4-8.8,7.4c-4.9,0-7.9-2.7-8-7.4
		C457.8,404.5,460.1,402.3,466.1,402.3z M470.4,409.6c-0.1-2.2-2.4-4.6-4.5-4.4s-4,2.2-4,4.4c0,2.1,2.3,4.6,4.2,4.7
		C468,414.4,470.4,411.7,470.4,409.6z"/>
	<path class="st0" d="M440.3,409.4c0.2-7.3-1.5-7.3,7.7-7c4.2,0.2,6.1,2.5,6.2,6.7c0.1,4.9-1.8,7.3-5.9,7.8
		C440.5,417.8,440.3,417.6,440.3,409.4z M446,405.5c-1.9,0.1-2.7,1.2-2.6,4.2c0.1,2.8,0.8,4,2.6,4c2.2,0,4.3-2.1,4.3-4.2
		C450.3,407.5,448.1,405.4,446,405.5z"/>
	<path class="st0" d="M524,409.4c0.2-7.6-1.2-7.2,7.4-7.1c4.8,0.1,6.3,3,3.6,7c-1.2,1.8-0.5,3.1,0.2,4.6c0.5,0.8,2.2,1.9,0.4,2.8
		c-1.3,0.7-2.8,0.1-3.6-1.4c-0.4-0.8-0.6-1.9-1.2-2.3c-0.7-0.5-1.8-0.6-2.7-0.9c-0.2,0.8-0.5,1.6-0.4,2.4c0.2,1,0.8,2.1-0.8,2.3
		c-1.3,0.2-2.4-0.3-2.6-1.7C524.1,413.3,524.1,411.4,524,409.4z M527,406.8c1.4,1.1,2.2,2.1,3,2.2c1.3,0.3,2.5-0.5,2.8-1.9
		c0.2-1.2-1.2-2.5-2.5-2.2C529.3,405,528.5,405.9,527,406.8z"/>
	<path class="st0" d="M520.7,415.8c-0.7,0.5-1.3,1.2-1.8,1.1c-1.1-0.2-2.2-0.7-3.2-1.2c-2-1-3.9-1.2-5.8,0.2
		c-0.4,0.3-0.8,0.8-1.3,0.8c-1.1,0.1-2.2-0.1-3.3-0.2c0.2-0.8,0.2-1.7,0.5-2.5c1.2-3.2,2.3-6.3,3.6-9.3c1-2.5,5.1-3.3,6.2-1.2
		C517.6,407.3,519,411.5,520.7,415.8z M512.8,406.2c-0.9,1.7-1.7,2.5-1.8,3.5c-0.2,1.3,0.8,2.2,2.2,1.9c0.8-0.2,2-1.3,1.9-1.8
		C514.9,408.7,513.9,407.9,512.8,406.2z"/>
	<path class="st0" d="M408.5,402.3c1,0.1,2.1,0,3.1,0.2c0.5,0.2,0.8,0.8,1.2,1.2c-0.5,0.5-1,1.3-1.5,1.4c-0.8,0.1-1.7-0.6-2.5-0.6
		s-2.1,0.5-2.2,0.8c-0.2,0.8,0.2,2.1,0.8,2.6c0.7,0.6,1.9,0.7,2.9,1.1c2.2,1,3.2,2.3,3,4.4s-1.5,3.1-3.3,3.8
		c-2.4,0.8-4.6,0.3-6.7-0.5c-0.5-0.2-1.1-1.3-0.9-1.7c0.2-0.5,1.1-1.1,1.7-1.1c0.8,0,1.7,0.8,2.5,0.7c0.8-0.1,1.7-0.8,2.5-1.2
		c-0.5-0.8-0.8-1.8-1.4-2.4c-0.6-0.5-1.7-0.6-2.5-1c-2.2-0.9-2.9-2.3-2.6-4.6c0.3-2,1.3-2.9,3.7-3.1
		C407.1,402.2,407.8,402.3,408.5,402.3L408.5,402.3z"/>
	<path class="st0" d="M417.1,409.9c0-0.4-0.1-0.8,0-1.2c0.2-2,0.5-3.9,0.8-5.9c2.5-0.1,5.1-0.2,7.6-0.3c0.3,0,0.6,0.6,0.9,0.9
		c-0.4,0.3-0.7,0.8-1.1,0.9c-1.2,0.2-2.3,0.2-3.4,0.5c-0.6,0.2-1.5,1.1-1.4,1.5c0.2,0.7,0.8,1.5,1.5,1.9c1.2,0.8,3.2-0.5,3.9,1.5
		c-1.3,0.2-2.7,0.2-3.8,0.8c-0.8,0.4-1.5,1.5-1.5,2.3c-0.1,0.5,1,1.5,1.7,1.6c1.2,0.3,2.5,0.2,3.8,0.3c0.4,0.1,0.8,0.5,1.2,0.8
		c-0.3,0.4-0.5,1-0.8,1.1c-2.5,0.2-5.1,0.2-7.6,0.1c-0.5,0-1.3-1.2-1.4-1.9c-0.2-1.6-0.1-3.3-0.1-5
		C417.2,409.9,417.2,409.9,417.1,409.9z"/>
	<path class="st0" d="M546.1,402.4c1.5,0,3.1-0.2,4.6,0.1c0.5,0.1,1.2,0.8,1.4,1.4c0.1,0.3-0.6,1.2-1,1.3c-3.5,0.4-3.4,2.9-3.3,5.4
		c0.1,1.4,0,2.8,0,4.2c-0.1,1.6-1,2.2-2.5,2.1c-1.6-0.2-1.7-1.2-1.5-2.5c0.2-1.5,0.2-3,0.3-4.6c0.1-2.1-0.5-3.7-2.7-4.5
		c-0.6-0.2-1-1.2-1.5-1.8c0.7-0.4,1.4-1.1,2.2-1.2C543.2,402.3,544.7,402.3,546.1,402.4L546.1,402.4z"/>
	<path class="st0" d="M431.2,409.8c0-1.8,0-3.6,0-5.4c0-1.5,0.9-2,2.2-2c1.2,0,2,0.6,2,1.9c0.1,3.6,0.1,7.2,0,10.7
		c0,1.5-0.9,2-2.3,1.9c-1.5,0-1.9-0.8-1.9-2.2C431.4,413.1,431.3,411.5,431.2,409.8L431.2,409.8z"/>
</g>
</a>
<g id="at">
	<path class="st0" d="M390.9,402.3c3.3,0.1,4.1,2.5,4.9,5c0.6,1.9,0.2,3.5-1.3,4.9c-1.1,0.9-8.6,0.8-9.6-0.2
		c-1.2-1.3-1.2-2.8-0.3-4.2c0.8-1.3,1.9-2.5,3.8-1.9c1.6,0.5,3.3,0.8,2.8,3.2c-0.2,0.6,0.7,1.4,1.1,2.1c0.8-0.6,2-1.1,2.1-1.8
		c0.2-1.2-0.1-2.5-0.6-3.6C393.2,404.6,391.9,403.5,390.9,402.3L390.9,402.3z M390.9,409.1c-1.5-0.9-2.2-1.8-3-1.9
		c-1.3-0.2-2.3,0.8-2.2,2c0.1,0.8,1.2,2.2,1.6,2C388.4,411,389.2,410.1,390.9,409.1z"/>
	<path class="st0" d="M385.5,402.3c-0.8,0.8-1.8,1.5-2.6,2.2c-2.4,2.3-2.8,6.2-1,8.8c2,2.9,5.8,4.2,8.8,2.9c0.6-0.2,1.1-0.7,1.7-0.8
		c0.2-0.1,0.6,0.2,0.9,0.3c-0.2,0.3-0.3,0.8-0.5,0.9c-4.2,2.6-10.8,0.5-12.8-4C378.1,408.2,380.6,403.6,385.5,402.3L385.5,402.3z"/>
	<path class="st0" d="M391,402.3c-1.8,0-3.6,0-5.4,0l0,0C387.4,401.4,389.2,401.4,391,402.3L391,402.3z"/>
</g>
<g id="date">
	<path class="st0" d="M320.1,417c-1.2,0-2.3,0.2-3.5-0.1c-0.8-0.2-1.9-0.5-2.1-1.2c-0.2-0.6,0.2-1.8,0.7-2.4
		c1.1-1.1,2.4-1.9,3.6-2.9c0.8-0.6,1.9-1.2,2.3-1.9c0.4-0.8,0.5-2,0.2-2.8c-0.5-1.2-1.7-0.8-2.6-0.2c-0.3,0.2-0.6,0.5-0.9,0.7
		c-1.2,0.7-2.5,1-3.6-0.1c-0.7-0.7,0.2-3,1.8-3.2c2.9-0.4,5.9-0.6,8.6,0c2.4,0.5,2.5,4.6,0.4,6.5c-0.7,0.7-1.9,1-2.5,1.7
		c-0.5,0.5-0.9,1.5-0.8,2.3c0.1,0.4,1.1,0.8,1.8,1.1c0.9,0.3,2.7-1,2.6,1c0,1.8-1.8,1.4-3,1.5C322.2,417.1,321.1,417,320.1,417
		L320.1,417z"/>
	<path class="st0" d="M254,417c-1.3,0-2.5,0.1-3.9,0c-2.1-0.2-2.7-1.5-1.3-3.1c1-1.2,2.4-1.9,3.6-2.9c1-0.9,2.2-1.9,2.9-3
		c0.3-0.5,0-1.7-0.5-2.4c-0.2-0.3-1.3-0.1-2,0.1c-1.2,0.3-2.3,1-3.5,1.2c-1.4,0.1-1.8-0.8-1-2c1.8-2.5,8.1-3.5,10.5-1.6
		c1.8,1.4,1.9,4.3,0.2,6.2c-0.6,0.6-1.5,0.9-2.2,1.5c-0.6,0.7-1,1.6-1.5,2.4c0.8,0.5,1.6,0.8,2.5,1.2c0.2,0.1,0.5-0.2,0.8-0.1
		c0.5,0.2,1,0.5,1.5,0.8c-0.5,0.5-0.8,1.5-1.3,1.5c-1.5,0.2-3.1,0.1-4.6,0.1C254,416.9,254,416.9,254,417z"/>
	<path class="st0" d="M296.6,402.3c1.2,0.5,3.8-0.9,3.8,1.3c0,1.7-2.6,0.5-3.9,1.1c-0.8,0.3-1.5,1.1-2.2,1.7c0.6,0.7,1.2,1.5,2,1.9
		c0.5,0.3,1.2,0.2,1.9,0.2c1.7,0.2,2.9,0.8,3.5,2.5c0.5,1.8-0.2,4.2-1.5,5.3c-2.6,2.1-7.3,1.6-9.4-1c-0.3-0.4-0.5-1.2-0.4-1.7
		c0.1-0.2,0.9-0.5,1.3-0.5c1.1,0.2,2.2,0.7,3.2,1c1.2,0.4,2.4,0.2,2.8-1.2c0.5-1.5-0.3-2.5-1.8-2.9c-0.6-0.2-1.2-0.2-1.9-0.2
		c-2.2,0.1-2.9-0.8-2.9-3C291,402.6,291.2,402.3,296.6,402.3z"/>
	<path class="st0" d="M270.3,402.2c1.8,0.2,2.9,0.2,4,0.5c2.2,0.8,2.9,2.5,1.5,4.4c-1.1,1.6-0.8,2.7,0.2,4.1
		c1.3,1.9,1.1,3.1-0.5,4.7c-2.6,2.5-8.3,2.2-10.4-0.6c-0.8-1-0.4-1.9,0.8-1.9c1.1,0,2.2,0.5,3.2,0.8c1.5,0.6,2.9,0.8,3.6-0.8
		c0.8-1.6-0.4-2.7-1.9-3.2c-1.9-0.6-2-1.2,0-1.8c1.3-0.4,1.9-1.3,1.4-2.6c-0.5-1.4-1.7-1.4-2.9-1c-0.8,0.2-1.6,0.8-2.5,0.8
		c-0.5,0.1-1.3-0.4-1.5-0.8s0.2-1.4,0.6-1.5C267.6,402.7,269.2,402.4,270.3,402.2z"/>
	<path class="st0" d="M283.1,418.3c-1.1-1.2-2.3-2.1-2.2-2.8c0.1-0.8,1.2-1.9,2.2-2.2c1.2-0.4,2.5,0.5,2.2,1.9
		C285.1,416.2,284.1,416.9,283.1,418.3z"/>
	<path class="st0" d="M311.1,415.3c-1.7,1-2.5,1.8-3.6,2c-0.4,0.1-1.4-1.3-1.5-2.1c-0.1-1.3,0.9-2.2,2.2-1.9
		C309,413.5,309.7,414.3,311.1,415.3z"/>
	<path class="st0" d="M337.1,402.4c1.5,0,3.1-0.2,4.6,0.1c0.5,0.1,1.2,0.8,1.4,1.4c0.1,0.3-0.6,1.2-1,1.3c-3.5,0.4-3.4,2.9-3.3,5.4
		c0.1,1.4,0,2.8,0,4.2c-0.1,1.6-1,2.2-2.5,2.1c-1.6-0.2-1.7-1.2-1.5-2.5c0.2-1.5,0.2-3,0.3-4.6c0.1-2.1-0.5-3.7-2.7-4.5
		c-0.6-0.2-1-1.2-1.5-1.8c0.7-0.4,1.4-1.1,2.2-1.2C334.2,402.3,335.7,402.3,337.1,402.4L337.1,402.4z"/>
	<path class="st0" d="M345.9,407.7c-0.1-0.8-0.3-2.4-0.2-3.9c0.1-0.6,0.8-1.5,1.5-1.7c1.1-0.3,2.2,0.1,2.2,1.4
		c0.2,1.8,0.1,3.6,0.2,5.4c0.1,1.2,0.1,2.3,0.5,3.4c0.5,1.3,1.6,2.3,3,1.8c0.8-0.3,1.7-1.5,1.9-2.5c0.4-1.2,0.2-2.5,0.2-3.8
		s0-2.5,0.1-3.9c0.1-1.2,0.8-1.9,1.9-1.9c1.3-0.1,2.3,0.5,2.3,1.9c0,2.8,0.2,5.6-0.2,8.4c-0.3,2.9-2.2,4.6-5.1,5
		c-2.9,0.5-5.6,0-7.7-2.2c-0.5-0.6-0.7-1.6-0.8-2.5C345.8,411.3,345.9,409.8,345.9,407.7z"/>
	<path class="st0" d="M362.9,409.5c0-0.4-0.1-0.8,0-1.2c0.2-2,0.5-3.9,0.8-5.9c2.5-0.1,5.1-0.2,7.6-0.3c0.3,0,0.6,0.6,0.9,0.9
		c-0.4,0.3-0.7,0.8-1.1,0.9c-1.2,0.2-2.3,0.2-3.4,0.5c-0.6,0.2-1.5,1.1-1.4,1.5c0.2,0.7,0.8,1.5,1.5,1.9c1.2,0.8,3.2-0.5,3.9,1.5
		c-1.3,0.2-2.7,0.2-3.8,0.8c-0.8,0.4-1.5,1.5-1.5,2.3c-0.1,0.5,1,1.5,1.7,1.6c1.2,0.3,2.5,0.2,3.8,0.3c0.4,0.1,0.8,0.5,1.2,0.8
		c-0.3,0.4-0.5,1-0.8,1.1c-2.5,0.2-5.1,0.2-7.6,0.1c-0.5,0-1.3-1.2-1.4-1.9c-0.2-1.6-0.1-3.3-0.1-5C363,409.5,363,409.5,362.9,409.5
		z"/>
</g>
<g id="top">
	<path class="st0" d="M263.3,217.9c-8.3,0.7-14.9-2.9-18.9-10.2c-5.6-10.1-3.2-24.3,10.4-29.1c6.4-2.3,13-2.2,19.2,0.5
		c7.6,3.3,11.2,9.7,11.4,17.8c0.3,12.8-9.9,21.6-19.8,21C265,217.9,264.3,217.9,263.3,217.9z M272.5,198c-0.1-6-5.2-10.9-10-10.1
		c-3.6,0.6-6,2.9-7,6.4c-1,3.8-0.9,7.5,2.1,10.4c2.6,2.5,5.8,3.3,9.2,1.6C270.6,204.5,272.5,201.5,272.5,198z"/>
	<path class="st0" d="M336.7,197.4c0-5.2,0-10.3,0-15.5c0-3.8,0.2-3.9,3.9-3.7c1.6,0.2,3.4,0.2,4.9-0.2c2.6-0.5,4.2,0.5,5.3,2.6
		c2.4,4.6,4.8,9.1,7.2,13.6c0.2,0.2,0.2,0.5,0.2,0.8c0.5,1.4,1.3,2.8,3,2.3s1.2-1.9,1-3.2c-0.4-4.5-0.8-9-1-13.4
		c-0.1-2.5,0.3-2.8,2.9-2.7c1.6,0.1,3.3-0.2,4.9-0.2c2.9-0.1,3.5,0.5,3.5,3.6c0.1,7.2,0,14.4,0,21.6c0,3.6,0.1,7.2,0,10.8
		c-0.1,2.5-0.4,2.9-2.9,3c-1.9,0.1-3.9-0.2-5.8,0.1c-3.4,0.4-5.3-1.2-6.6-4c-2-4-4.2-8-6.3-11.9c-0.2-0.5-0.4-1-0.8-1.3
		c-0.5-0.4-1.4-1-1.9-0.8s-1.1,1.2-1.1,1.8c0,2.9,0.2,5.6,0.3,8.5c0.1,1.8,0.2,3.6,0.3,5.4c0.1,1.6-0.8,2.3-2.4,2.4
		c-0.2,0-0.5,0-0.8,0c-10.1,0.1-8.1,0.6-8.3-7.7C336.6,205.5,336.7,201.5,336.7,197.4L336.7,197.4z"/>
	<path class="st0" d="M381.5,197.4c0-5.4-0.1-10.7,0-16.1c0-2.9,0.3-3,3.1-2.9c5.5,0.2,11,0.1,16.5,0.3c4.5,0.2,8.7,1.4,12.1,4.3
		c1.5,1.3,2.9,2.9,3.9,4.7c4.3,8.3,2.5,18.7-4.2,24.6c-3.6,3.2-8.2,4.4-12.7,4.7c-5.3,0.4-10.5,0.2-15.8,0.1c-2.5,0-2.7-0.4-2.8-3.1
		C381.5,208.5,381.5,202.9,381.5,197.4z M407,197.7c0.4-7-6.4-9.7-11-9.7c-2,0-2.9,1.5-2.9,3.7c0.1,3.8,0.1,7.6,0,11.4
		c0,2.1,0.7,3.2,2.6,3.6C401.6,207.9,407,203.5,407,197.7z"/>
	<path class="st0" d="M397.4,311.3c-10.7,0.9-17.3-8-17.5-17.2c-0.1-4.9-0.5-9.7,1.8-14.3c2.2-4.6,5.3-8,10.4-8.7
		c3.2-0.5,6.4-0.7,9.5-0.3c6.6,0.8,12,7.1,12.2,13.8c0.2,3.9,0.3,7.9,0,11.8C413.1,305.9,407,311.3,397.4,311.3z M402.6,291.2
		c-0.5-2.5-0.8-4.7-1.5-6.9c-0.8-2.4-2.5-3.4-4.2-3.2c-1.7,0.2-3.2,1.6-3.7,3.9c-0.4,1.8-0.8,3.6-0.8,5.3c0.2,2.5,0.5,5.1,1.2,7.5
		c0.5,1.7,1.4,3.5,3.6,3.4c2-0.1,2.9-1.5,3.5-3.1C401.4,295.9,401.9,293.6,402.6,291.2z"/>
	<path class="st0" d="M328.7,192.2c0,3.1-0.1,6.2,0,9.3c0.2,7-4.5,13.4-10.9,15.8c-0.2,0.1-0.2,0.2-0.4,0.2
		c-5.5,0.8-11,1.5-16.4-0.6c-4.6-1.7-7.2-5.3-8.3-10c-0.6-2.5-0.8-5.1-0.8-7.6c-0.2-5.8-0.1-11.6,0-17.4c0-3.5,0.3-3.8,3.7-3.9
		c1.5-0.1,3.1-0.1,4.6,0c3.4,0.1,3.8,0.5,3.8,3.8c0.1,5.3,0,10.5,0,15.8c0,0.8,0,1.5,0,2.3c0.2,4.3,2.7,7.3,6.3,7.3
		c3.2-0.1,6.1-3.4,6.1-7.2c0.1-4.1,0-8.3,0-12.4c0-2.2-0.1-4.4,0-6.6c0.1-2.6,0.4-2.8,2.9-2.7c1.9,0.1,3.9,0.1,5.8-0.1
		c2.8-0.2,3.2,0,3.3,2.8C328.8,184.8,328.7,188.5,328.7,192.2L328.7,192.2z"/>
	<path class="st0" d="M525,197.7c0-5.4,0-10.8,0-16.1c0-3.2,0.2-3.2,3.2-3.2c1.5,0.1,3.1-0.1,4.6-0.2c3.2-0.3,3.6,0,3.6,3.3
		c0,2.7-0.2,5.4-0.2,8.1c0,0.8,0.3,1.6,0.5,2.4c0.8-0.4,2.1-0.5,2.6-1.1c2.5-3.1,4.9-6.3,7-9.7c1.5-2.5,3.6-3.5,6.4-3.2
		c2.6,0.2,5.3,0.2,8,0.2c0.5,0,0.9,0.3,1.3,0.5c-0.2,0.5-0.2,1-0.5,1.3c-2.5,3.1-5.1,6.1-7.6,9.1c-1.2,1.5-2.4,3-3.6,4.5
		c-1.7,2.2-1.8,2.9-0.2,5.1c3.9,5.3,8,10.7,11.9,16.1c1.2,1.7,1.1,2.2-0.9,2.3c-3.3,0.1-6.6,0-10,0.1c-2.1,0-3.3-1.2-4.3-2.7
		c-1.9-2.9-3.9-5.8-5.8-8.7c-0.5-0.6-0.8-1.4-1.3-1.9c-0.8-0.7-1.9-1.2-2.8-1.7c-0.1,1.1-0.3,2.1-0.3,3.2c-0.1,3.2-0.1,6.4-0.2,9.6
		c0,1.4-0.8,2.1-2.2,2.2c-2.1,0.1-4.1,0.1-6.2,0c-2.7-0.1-3-0.4-3.1-3.2C524.9,208.5,525,203.1,525,197.7L525,197.7z"/>
	<path class="st0" d="M513.7,217.1c-1.2,0-2.3,0-3.5,0c-2.1,0.1-3.5-0.6-3.9-2.9c-0.4-2.1-1.9-3-3.9-3.1c-2.7-0.2-5.4-0.2-8.1-0.1
		c-1.9,0-3.2,1.2-3.7,2.9c-0.8,2.7-2.8,3.4-5.4,3.2c-2.1-0.2-4.1,0-6.2-0.1c-2.4-0.1-2.5-0.3-1.7-2.4c4.5-11.4,9-22.6,13.5-34
		c0.8-2,2-2.6,4.2-2.3s4.6,0.2,6.9-0.1c2.2-0.3,3.4,0.4,4.2,2.3c1.3,3.2,2.8,6.3,4,9.6c2.9,7.6,5.7,15.1,8.6,22.7
		c0.3,0.7,0.5,1.5,0.8,2.2c0.5,1.3,0,2-1.4,2.1C516.7,217.1,515.2,217.1,513.7,217.1L513.7,217.1z M497.9,202.5
		c3.6-0.1,4.3-0.9,3.4-3.9c-0.5-1.5-0.8-3.2-1.5-4.7c-0.3-0.7-1.1-1.7-1.7-1.7c-0.5-0.1-1.5,0.9-1.8,1.6c-0.8,1.9-1.3,3.9-1.9,5.8
		c-0.5,1.5-0.1,2.5,1.5,2.9C496.7,202.5,497.6,202.5,497.9,202.5z"/>
	<path class="st0" d="M460.3,217.9c-9,0.5-15.7-3.3-19.2-11.4c-5.4-12.3-0.1-27.8,17.3-29.4c3.9-0.3,7.7,0,11.4,1.5
		c1.3,0.5,2.5,1.2,3.7,2s1.2,1.9,0.3,2.9c-0.9,1.1-1.8,2.2-2.6,3.3c-2.7,3.3-2.7,3.4-6.6,1.6c-3-1.4-5.9-0.9-8.4,0.9
		c-2.9,2.2-3.9,5.4-3.6,8.9c0.6,6.8,6.7,10.1,12.9,7.3c3-1.5,3.1-1.5,5,1c0.9,1.2,1.9,2.4,2.8,3.7c1.5,2.3,1.5,3.2-0.8,4.7
		c-2.3,1.6-4.9,2.9-7.8,2.9C463.1,217.9,461.7,217.9,460.3,217.9z"/>
	<path class="st0" d="M204.6,197.4c0-5.4-0.1-10.8,0-16.1c0-3,0.2-2.9,3.1-2.9c4.2,0.1,8.4-0.2,12.7-0.2c3.9,0,7.6,0.3,11.1,2.3
		c3.2,1.8,4.9,4.4,5.3,8c0.5,4.7,0.2,9.2-4,12.6c-2.5,2-5.3,2.3-8.3,2.8c-1.4,0.2-2.8,0.1-4.2,0.2c-3.5,0.2-4,0.6-4.1,4
		c-0.1,2.1,0.1,4.1,0,6.2c-0.1,2.5-0.5,2.8-3,2.9c-1.8,0.1-3.6,0.1-5.4,0c-2.8-0.2-3.1-0.4-3.1-3.2
		C204.6,208.4,204.6,202.8,204.6,197.4z M219.5,187.1c-2.5,0-3.3,1-3.2,4c0.1,2.9,1.2,4.2,3.7,4.2c2.6-0.1,5.1-2.1,5.2-4.2
		C225.1,188.8,222.6,187,219.5,187.1z"/>
	<path class="st0" d="M581.7,217.1c-3.5,0-7,0.1-10.4,0c-2.6-0.1-2.8-0.5-2.8-2.9c0.1-11,0.2-22.1,0.1-33.1c0-2.7,0.3-3,3-3
		c6.6,0.1,13.1,0.1,19.6,0c2.5,0,3.2,0.2,3.2,2.5c-0.2,7.6,2.2,7-6.6,7.1c-1.8,0-3.6,0-5.4,0.1c-1.6,0.1-2.7,0.8-2.7,2.6
		c0,1.7,1,2.6,2.6,2.6c2.9,0.1,5.9,0.1,8.9-0.1c1.7-0.1,2.2,0.5,2.4,2.1c0.7,6.8,0.3,7.3-6.4,7.3c-1.7,0-3.3,0-5,0
		c-1.5,0.1-2.5,0.6-2.5,2.2c0,1.5,1,2.3,2.5,2.5c1,0.1,2.1,0.1,3.1,0.1c2.5,0,5.2-0.1,7.7,0.1c2.3,0.1,2.5,0.5,2.5,2.9
		c-0.1,1.4,0,2.8,0,4.2c0.1,2.3-0.2,2.7-2.5,2.8C589.1,217.2,585.4,217.1,581.7,217.1L581.7,217.1z"/>
	<path class="st0" d="M356.6,271.7c2.9-0.1,3.4,0.3,3,3.2c-0.2,1.5-0.8,3-1.1,4.5c-0.3,1.3,0,2.3,1.5,2.6c1.3,0.2,2.4-0.3,2.7-1.6
		c0.5-1.9,0.6-3.8,1-5.6c0.5-2.8,3.6-4.3,5.9-2.9c0.5,0.3,0.8,1.3,0.8,1.9c-0.1,1.6-0.5,3.3-0.7,4.9c-0.2,1.6,0,3.2,2.1,3.5
		c2.2,0.4,1.9,2.2,1.9,3.6c0,1.5-0.8,2.3-2.4,2.4c-0.6,0.1-1.5,0.1-1.9,0.5c-0.7,0.8-1.6,1.8-1.7,2.7c-0.1,0.7,1,1.9,1.7,2.1
		c2.5,0.4,2.7,1.9,2.5,3.9c-0.1,1.3-0.5,2.3-1.9,2.4c-2.8,0.2-3.7,1.9-3.7,4.4c0,0.8-0.4,1.5-0.4,2.2c-0.3,4.5-2.4,4.2-5.9,4
		c-1.3-0.1-1.8-0.8-1.5-2.1c0.4-1.8,0.8-3.6,1-5.3c0.2-1.3,0-2.8-1.7-2.9c-1.5-0.2-2.4,1-2.6,2.3c-0.3,1.8-0.2,3.6-0.4,5.3
		c-0.2,2.3-1.2,2.9-4.1,2.7c-2.2-0.2-2.6-0.5-2.5-2.9c0.1-1.4,0.4-2.8,0.8-4.1c0.5-1.7,0.1-2.9-1.5-3.3c-2.3-0.6-2.5-2.2-2.4-4.1
		c0.1-1.4,0.7-2.2,2.1-2.2c0.6-0.1,1.5,0,1.9-0.4c0.8-0.9,1.6-2,1.9-3.1c0.1-0.5-1.2-1.7-1.9-1.9c-2.3-0.5-2.3-2-2.3-3.8
		c0-1.9,1-2.5,2.7-2.5c1.9-0.1,2.7-1.3,3-2.9c0.2-1.2,0.4-2.5,0.5-3.8C353.1,271.8,353.1,271.8,356.6,271.7z M361.1,290
		c-0.5-0.4-1.2-1.5-2-1.5c-1.5-0.2-2.2,1.1-2.4,2.5c-0.2,1.3,0.5,2.2,1.9,2.5C359.9,293.6,361.1,292.4,361.1,290z"/>
	<path class="st0" d="M446.8,291.2c0,5.2,0,10.3,0,15.5c0,3.4-0.4,3.7-3.8,3.8c-2.2,0.1-4.4,0-6.6-0.1c-1.5-0.1-2.2-0.8-2.1-2.5
		c0.2-6.4,0.2-12.8,0.3-19.2c0-0.8,0.1-1.5-0.1-2.3c-0.3-1.6-1.3-2-2.8-1.1c-1.5,1-3.4,2.9-4.7,2.6c-1.5-0.4-2.4-2.8-3.6-4.3
		c-0.3-0.4-0.6-0.8-0.9-1.2c-1.2-1.4-0.9-2.5,0.6-3.5c3.2-2,6.2-4.2,9.4-6c1.4-0.8,3.1-1.1,4.7-1.2c2-0.2,4.1-0.1,6.1-0.2
		c2.9-0.2,3.4,0.2,3.4,3.2C446.8,280.2,446.8,285.7,446.8,291.2L446.8,291.2z"/>
</g>
</svg>
