<?xml version="1.0" encoding="utf-8"?>
<!-- Generator: Adobe Illustrator 27.4.1, SVG Export Plug-In . SVG Version: 6.00 Build 0)  -->
<svg version="1.1" id="レイヤー_1" xmlns="http://www.w3.org/2000/svg" xmlns:xlink="http://www.w3.org/1999/xlink" x="0px"
	 y="0px" viewBox="0 0 800 800" style="enable-background:new 0 0 800 800;" xml:space="preserve">
<style type="text/css">
	.st0{fill:#FFFFFF;}
	.st1{fill:none;}
</style>
<g id="illust">
	<path class="st0" d="M389.5,628.7c-1.4,0-2.9,0.2-4.2-0.1c-4.3-0.8-8.4,0.4-12.5,1.4c-6.3,1.5-12.7,1.4-19.1,0
		c-0.4-0.1-0.7-0.2-1.1-0.3c-2.8-0.6-3.6-0.1-3.6,2.7c0,1.3-0.1,2.5,0.1,3.9c0.3,3.5-0.8,6.6-2.3,9.6c-0.7,1.4-2,2.8-3.3,3.6
		c-4.8,2.9-9.7,5.8-15.3,7.1c-6.6,1.6-13.1,3.8-19.7,5.3c-3.9,0.9-8.1,1.1-12.2,1.4c-2.7,0.2-4.6-1.5-6.3-3.2
		c-6.8-6.7-10.8-14.8-11.8-24.4c-0.5-5.5,1.9-9.2,5.9-12.2c4.5-3.4,9.2-6.6,13.9-9.7c1.7-1.1,2.4-2.3,2.6-4.3
		c0.5-4.2,1.2-8.3,1.9-12.5c0.5-2.8,1.5-5.5,2-8.3c1.1-6.3,5-10.2,10.7-11.9c5.5-1.6,11.2-2.5,16.9-3.4c2.2-0.3,4.6,0.5,6.9,0.8
		c1.6,0.2,3.3,0.5,4.9,0.4c1-0.1,2.4-0.5,3-1.3c4-5.1,9.6-8.2,14.9-11.4c5.1-3.2,10.4-6,15.8-8.8c2.4-1.2,5-1.9,7.6-2.8
		c13.8-4.8,27.1-11,40.4-17.2c7-3.2,13.8-7,20.5-10.7c5.3-2.9,10.9-3.7,16.7-4.2c3.2-0.2,6.4-0.4,9.6-1c9-1.8,16.2,1,21.5,8.5
		c5.3,7.5,9.9,15.3,10.5,24.9c0.3,4.7,0.8,9.4,1.3,14.1c0.2,2.5-0.8,4.5-2.9,5.9c-3.2,2.2-6.3,4.6-9.5,6.5
		c-10.7,6.3-21.3,12.4-32.1,18.4c-17.3,9.7-34.8,18.8-53.2,26.3c-3.6,1.5-6.8,3.6-10.3,5.3c-1.3,0.6-2.9,0.9-4.3,1.2
		c-1.2,0.2-2.5,0.1-3.9,0.1C389.5,628.5,389.5,628.6,389.5,628.7z M495.7,560.3c-0.3-2-0.8-4.1-0.8-6.1c0.2-5.4-2.3-10-4.7-14.4
		c-1.8-3.3-2.5-3.3-5.6-1.2c-6.6,4.7-13.1,9.4-19.8,14c-3.4,2.3-7,4.3-10.5,6.5c-5.4,3.2-10.7,6.8-16.2,9.7
		c-9.7,4.9-19.6,9.5-29.5,14.2c-0.7,0.3-1.5,0.5-2.2,0.8c-4.9,2.1-9.9,4.2-14.8,6.3c-1.9,0.8-2.8,2.2-2.1,4.3
		c0.5,1.7,1.2,3.4,1.5,5.2c1,4.6,2.2,9.2,2.9,13.9c0.4,2.8,0.8,3.3,3.6,2.2c2.9-1.2,5.6-2.5,8.5-3.7c6.3-2.8,12.7-5.3,19-8.3
		c4.7-2.2,9.3-5,13.9-7.5c5.5-2.9,11-5.5,16.5-8.5c8.3-4.6,16.4-9.6,24.6-14.4c4.2-2.5,8.5-4.8,12.7-7.2
		C494.8,564.8,496.1,563,495.7,560.3z M467.7,526.2c-3.2,0.4-5.6,0.2-7.6,1.1c-7.2,3.1-14.4,6.1-21.2,10
		c-11.2,6.5-22.9,11.4-34.9,16.2c-11,4.3-22.3,8-32.3,14.5c-0.8,0.5-1.9,0.8-2.9,1.2c-1.2,0.4-2.8,0.8-2.5,2.4
		c0.2,0.8,1.4,1.8,2.3,2.1c5.1,1.7,9.6,4.4,13.7,7.8c1.6,1.3,2.7,1.2,4.4,0.2c4-2.2,8.2-4.2,12.4-6.3c2.3-1.1,4.8-1.8,7.2-2.8
		c5.6-2.5,11.3-4.9,16.9-7.5c1.4-0.6,2.8-1.3,4.1-2.1c6.3-3.7,12.4-7.7,19-11c6.6-3.2,12.5-7.5,18.5-11.7c4-2.8,8-5.5,12-8.3
		c0.6-0.5,1.6-1.5,1.5-1.9c-0.3-0.8-1.2-1.7-2-1.9C473.2,527.5,470.1,526.8,467.7,526.2z M337.4,634.9c0-4.6-1.6-8.8-3.5-12.9
		c-2.2-4.8-3.6-5.6-8.7-4.5c-3.6,0.8-7.3,1.5-10.9,2.5c-4.5,1.2-8.9,2.4-13.3,3.8c-2.7,0.8-4.6,2.7-5.6,5.4c-1,2.9-2.2,5.7-3.1,8.7
		c-0.3,1-0.1,2.3,0.3,3.3c3.2,8.3,10.5,11.4,19.8,10.5c3.6-0.3,7.1-1,10.7-1.4C331.6,649.2,337.4,643,337.4,634.9z M358.4,620.9
		c1.3-0.3,3.2-1.1,5.3-1.2c3-0.2,4.2-2,4.7-4.7c0.5-3,1-6.1,1.6-9c0.7-3.4,0.2-4.2-3.2-5.2c-11-2.9-22.1-5.9-33.1-8.9
		c-4.2-1.2-8.4-2.2-12.7-3.2c-3.7-0.8-6.2,0.8-7.2,4.4c-1.2,4.5-2.3,9-3.5,13.4c-0.8,3.1-0.2,3.7,3,3.1c4.4-0.9,8.8-1.7,13.2-2.8
		c5.4-1.3,9.6,0.7,13,4.6c1.5,1.8,2.7,3.7,4.2,5.6c0.6,0.8,1.4,1.9,2.2,2C349.9,619.8,353.8,620.3,358.4,620.9z"/>
</g>
<g id="dj">
	<path class="st0" d="M406.9,404.4c0.1-5.3,2.9-8.1,8.5-8c5.3,0.1,8.3,3.1,8.3,8c-0.2,4.6-3.4,8-8.3,7.7
		C410.7,411.9,406.7,410.3,406.9,404.4z M415.2,408.7c1.9-0.1,4.4-2.7,4.4-4.6c0-2-2.6-4.5-4.6-4.3c-1.9,0.2-4,2.8-3.9,4.6
		C411.2,406.6,413.2,408.8,415.2,408.7z"/>
	<path class="st0" d="M320.4,403.8c0-1.7,0-3.3,0-5c0-1.3,0.5-2.4,2-2.3c3,0.2,6.1,0.4,9.1,1c2.2,0.5,3.3,2.2,3.4,4.6
		c0.2,2.8,0.6,5.9-2.2,7.6c-1.5,1-3.6,1.5-5.3,1.8c-6.7,0.8-6.9,0.5-6.9-6.2C320.4,404.9,320.4,404.4,320.4,403.8L320.4,403.8z
		 M324.2,404.6c0,2.8,0.7,3.9,2.5,3.9c2.2,0.1,4.4-2.1,4.5-4.3c0.1-2.2-1.8-4-4.1-4.1C325,400.2,324.2,401.4,324.2,404.6z"/>
	<path class="st0" d="M464,404c0-0.5,0-1,0-1.5c0-6.3,0-6.3,6.4-6c5.4,0.3,8.3,3.2,8.1,8.1c-0.2,3.9-1.8,5.9-5.6,6.6
		c-2.2,0.4-4.3,0.4-6.5,0.5c-1.5,0.1-2.4-0.7-2.4-2.2C464.1,407.6,464.1,405.8,464,404L464,404z M467.8,404.3
		c-0.1,3.1,0.7,4.2,2.5,4.2c2.2,0.1,4.6-2.2,4.5-4.2c-0.1-2-2.2-4.1-4.2-4.1C468.5,400.2,467.8,401.4,467.8,404.3z"/>
	<path class="st0" d="M459.3,404.1c0,1.5,0.2,3.1-0.1,4.6c-0.2,1-0.6,2.4-1.4,2.8c-1.4,0.6-2.8-0.1-3.6-1.4
		c-0.7-1.1-1.2-2.2-1.9-3.4c-0.6-1.1-1.5-2.2-2.7-1.3c-0.5,0.4-0.5,1.7-0.6,2.6c0,0.6,0.5,1.3,0.4,1.9c-0.2,0.7-0.9,1.5-1.5,1.7
		c-1.1,0.3-2.1-0.2-2.2-1.5c-0.1-3.9-0.1-8,0-11.9c0-0.5,0.8-1.4,1.3-1.5c1.8-0.4,3.3,0.1,4.2,1.9c0.7,1.4,1.2,2.9,2,4.1
		c0.5,0.7,1.6,0.8,2.5,1.3c0.2-0.8,0.7-1.5,0.7-2.3c0-1-0.3-2-0.5-3c-0.2-1-0.1-2,1.2-1.9c0.7,0.1,1.9,0.8,1.9,1.3
		c0.2,2,0.1,4.1,0.1,6.1C459.2,404.1,459.3,404.1,459.3,404.1z"/>
	<path class="st0" d="M427.7,402.2c-0.1-0.8-0.3-2.4-0.2-3.9c0.1-0.6,0.8-1.5,1.5-1.7c1.1-0.3,2.2,0.1,2.2,1.4
		c0.2,1.8,0.1,3.6,0.2,5.4c0.1,1.2,0.1,2.3,0.5,3.4c0.5,1.3,1.6,2.3,3,1.8c0.8-0.3,1.7-1.5,1.9-2.5c0.4-1.2,0.2-2.5,0.2-3.8
		c0-1.3,0-2.5,0.1-3.9c0.1-1.2,0.8-1.9,1.9-1.9c1.3-0.1,2.3,0.5,2.3,1.9c0,2.8,0.2,5.6-0.2,8.4c-0.3,2.9-2.2,4.6-5.1,5
		c-2.9,0.5-5.6,0-7.7-2.2c-0.5-0.6-0.7-1.6-0.8-2.5C427.6,405.8,427.7,404.3,427.7,402.2z"/>
	<path class="st0" d="M387.4,403.7c-0.1,7-5,10.3-10.1,7.6c-0.8-0.4-1.6-1.1-1.8-1.9c-0.5-2.1-1.1-4.2-1.1-6.4c0-5.2,4-8,8.9-6.3
		c1.2,0.5,2.5,1.8,3.1,3C387.2,401.1,387.3,402.9,387.4,403.7z M383,403.4c0,0.2,0.2-0.6-0.1-1.1c-0.5-0.8-1.3-2.2-2-2.2
		c-0.8-0.1-2,1-2.3,1.9c-0.4,1.2-0.3,2.8-0.2,4.1c0.2,1.3,0.7,2.6,2.3,2.5c1.8-0.1,2.2-1.5,2.3-2.9C383,405.2,383,404.7,383,403.4z"
		/>
	<path class="st0" d="M369.1,401.5c0.5,1.5,0.8,3.1,1.5,4.5c0.8,2.1,0.7,3.2-1,4.7c-1.5,1.2-2.5,0.8-4.1-0.2c-1.2-0.8-3-1-4.6-1.2
		c-3.1-0.3-4.2-1.5-2.9-4c1.5-2.9,3.4-5.7,5.7-8c0.9-0.9,3.6-1,4.9-0.4c0.9,0.5,1,2.8,1.4,4.3C369.6,401.4,369.4,401.5,369.1,401.5z
		 M365.1,401.1c-1.7,0.2-3.6,2.1-3.3,3.5c0.1,0.6,0.9,1.5,1.3,1.5c0.9-0.1,2.1-0.5,2.5-1.2c0.5-0.8,0.5-2.2,0.5-3.2
		C366.1,401.5,365.3,401.3,365.1,401.1z"/>
	<path class="st0" d="M391.4,403.7c0-1.3,0-2.5,0-3.9c-0.1-3.3-0.1-3.3,3.3-3.4c1.3,0,2.5-0.1,3.9,0.1c2.8,0.4,4.9,2.3,5,4.5
		c0.2,2.9-1.6,4.9-4.7,5.4c-2.3,0.4-4.3,0.8-4.2,3.9c0,0.4-1,1.2-1.5,1.2c-0.5,0-1.5-0.8-1.5-1.3c-0.2-2.2-0.1-4.3-0.1-6.5
		C391.4,403.7,391.4,403.7,391.4,403.7z M396.9,404.8c1-1.3,1.9-1.9,2.1-2.7c0.4-1.2-0.8-2.6-2.2-2.4c-0.8,0.2-2.1,1.2-2,1.6
		C395.1,402.3,395.9,403.2,396.9,404.8z"/>
	<path class="st0" d="M348.1,403.1c0,1.3,0,2.5,0,3.9c-0.1,2.2-0.8,3.9-3.1,4.8c-2.5,0.9-4.6,0.2-6.6-1c-0.8-0.5-0.5-1.4,0.4-1.6
		c0.8-0.2,1.8-0.2,2.6-0.3c1.9-0.2,2.6-1.2,2.5-3.1c-0.2-2.3-0.3-4.6-0.4-6.9c-0.1-1.3,0.5-2.2,2-2.2c1.6-0.1,2.4,0.8,2.4,2.3
		C348.1,400.2,348.1,401.7,348.1,403.1L348.1,403.1z"/>
</g>
<g id="date">
	<path class="st0" d="M347.5,361.3c0-1.5,0-3.1,0-4.6c-0.1-2,0.9-2.8,2.9-2.7c2.1,0.1,4.2-0.2,6.2,0.2c3.2,0.5,4.2,3.6,2.4,6.2
		c-2,2.9-2,2.9-0.3,5.5c0.5,0.8,0.5,1.7,0.8,2.6c-1.2-0.2-2.6-0.2-3.6-0.8c-0.8-0.6-1-2.1-1.7-2.9c-0.5-0.5-1.6-1.1-2.2-0.9
		c-0.5,0.1-1,1.4-1,2.1c0,1.2,0.5,2.5-1.3,2.5c-1.8,0.2-2.1-1.1-2.1-2.5C347.5,364.4,347.5,362.8,347.5,361.3L347.5,361.3z
		 M353.8,355.6c-1.2,1.2-2.2,1.9-2.5,2.8c-0.4,1.2,0.5,2.2,1.9,2.3c1.4,0.2,2.8-0.5,2.8-1.9C356.1,358,354.9,357,353.8,355.6z"/>
	<path class="st0" d="M323.2,368.6c-1.2,0-2.3,0.2-3.5-0.1c-0.8-0.2-1.9-0.5-2.1-1.2c-0.2-0.6,0.2-1.8,0.7-2.4
		c1.1-1.1,2.4-1.9,3.6-2.9c0.8-0.6,1.9-1.2,2.3-1.9c0.4-0.8,0.5-2,0.2-2.8c-0.5-1.2-1.7-0.8-2.6-0.2c-0.3,0.2-0.6,0.5-0.9,0.7
		c-1.2,0.7-2.5,1-3.6-0.1c-0.7-0.7,0.2-3,1.8-3.2c2.9-0.4,5.9-0.6,8.6,0c2.4,0.5,2.5,4.6,0.4,6.5c-0.7,0.7-1.9,1-2.5,1.7
		c-0.5,0.5-0.9,1.5-0.8,2.3c0.1,0.4,1.1,0.8,1.8,1.1c0.9,0.3,2.7-1,2.6,1c0,1.8-1.8,1.4-3,1.5C325.3,368.7,324.2,368.6,323.2,368.6
		L323.2,368.6z"/>
	<path class="st0" d="M257.1,368.6c-1.3,0-2.5,0.1-3.9,0c-2.1-0.2-2.7-1.5-1.3-3.1c1-1.2,2.4-1.9,3.6-2.9c1-0.9,2.2-1.9,2.9-3
		c0.3-0.5,0-1.7-0.5-2.4c-0.2-0.3-1.3-0.1-2,0.1c-1.2,0.3-2.3,1-3.5,1.2c-1.4,0.1-1.8-0.8-1-2c1.8-2.5,8.1-3.5,10.5-1.6
		c1.8,1.4,1.9,4.3,0.2,6.2c-0.6,0.6-1.5,0.9-2.2,1.5c-0.6,0.7-1,1.6-1.5,2.4c0.8,0.5,1.6,0.8,2.5,1.2c0.2,0.1,0.5-0.2,0.8-0.1
		c0.5,0.2,1,0.5,1.5,0.8c-0.5,0.5-0.8,1.5-1.3,1.5c-1.5,0.2-3.1,0.1-4.6,0.1C257.1,368.5,257.1,368.5,257.1,368.6z"/>
	<path class="st0" d="M299.7,353.9c1.2,0.5,3.8-0.9,3.8,1.3c0,1.7-2.6,0.5-3.9,1.1c-0.8,0.3-1.5,1.1-2.2,1.7c0.6,0.7,1.2,1.5,2,1.9
		c0.5,0.3,1.2,0.2,1.9,0.2c1.7,0.2,2.9,0.8,3.5,2.5c0.5,1.8-0.2,4.2-1.5,5.3c-2.6,2.1-7.3,1.6-9.4-1c-0.3-0.4-0.5-1.2-0.4-1.7
		c0.1-0.2,0.9-0.5,1.3-0.5c1.1,0.2,2.2,0.7,3.2,1c1.2,0.4,2.4,0.2,2.8-1.2c0.5-1.5-0.3-2.5-1.8-2.9c-0.6-0.2-1.2-0.2-1.9-0.2
		c-2.2,0.1-2.9-0.8-2.9-3C294.1,354.2,294.3,353.9,299.7,353.9z"/>
	<path class="st0" d="M273.4,353.8c1.8,0.2,2.9,0.2,4,0.5c2.2,0.8,2.9,2.5,1.5,4.4c-1.1,1.6-0.8,2.7,0.2,4.1
		c1.3,1.9,1.1,3.1-0.5,4.7c-2.6,2.5-8.3,2.2-10.4-0.6c-0.8-1-0.4-1.9,0.8-1.9c1.1,0,2.2,0.5,3.2,0.8c1.5,0.6,2.9,0.8,3.6-0.8
		c0.8-1.6-0.4-2.7-1.9-3.2c-1.9-0.6-2-1.2,0-1.8c1.3-0.4,1.9-1.3,1.4-2.6c-0.5-1.4-1.7-1.4-2.9-1c-0.8,0.2-1.6,0.8-2.5,0.8
		c-0.5,0.1-1.3-0.4-1.5-0.8c-0.2-0.4,0.2-1.4,0.6-1.5C270.7,354.3,272.3,354,273.4,353.8z"/>
	<path class="st0" d="M334.3,361.3c0-1.3,0-2.5,0-3.9c0.1-3.2,0.4-3.4,3.6-3.5c1.4,0,2.8,0.1,4.2,0.2c0.4,0.1,0.6,0.6,0.9,1
		c-0.4,0.3-0.7,0.8-1.1,0.9c-1,0.2-2.1,0.1-3,0.5c-0.6,0.2-1.2,1.1-1.2,1.6s0.7,1.2,1.2,1.7c0.4,0.3,1,0.1,1.5,0.3
		c0.7,0.4,1.3,0.8,2,1.3c-0.6,0.5-1.2,1-1.9,1.5c-0.1,0.1-0.2,0-0.4,0c-1.9,0.2-2.9,0.9-2.6,2.9c0.2,1.3-0.1,2.4-1.7,2.4
		c-1.6-0.1-1.6-1.4-1.7-2.5c0-0.2,0-0.5,0-0.8C334.3,363.8,334.3,362.5,334.3,361.3L334.3,361.3z"/>
	<path class="st0" d="M368.6,359.5c0,2.3-0.1,4.6,0,6.9c0.1,1.2-0.2,2.1-1.5,2.2c-1.2,0.2-2.3-0.1-2.6-1.6c-0.1-0.2-0.1-0.5-0.1-0.8
		c0-3.3,0-6.6,0-10c0-1.6,1-2.2,2.5-2.2c1.5,0.1,1.9,1.1,1.7,2.4c-0.1,1-0.2,2-0.2,3C368.5,359.5,368.6,359.5,368.6,359.5z"/>
	<path class="st0" d="M286.2,369.9c-1.1-1.2-2.3-2.1-2.2-2.8c0.1-0.8,1.2-1.9,2.2-2.2c1.2-0.4,2.5,0.5,2.2,1.9
		C288.2,367.8,287.2,368.5,286.2,369.9z"/>
	<path class="st0" d="M314.2,366.9c-1.7,1-2.5,1.8-3.6,2c-0.4,0.1-1.4-1.3-1.5-2.1c-0.1-1.3,0.9-2.2,2.2-1.9
		C312.1,365.1,312.8,365.9,314.2,366.9z"/>
</g>
<a xlink:href="https://www.instagram.com/seido_mart/" target="_blank">
<g id="seidomart">
	


	<rect x="397.5" y="350.4" class="st1" width="149.2" height="24.2"/>
	<rect x="397.5" y="372.1" class="st0" width="149.2" height="2.5"/>

	<path class="st0" d="M479.4,361.4c0-1.5,0-3.1,0-4.6c0-1.7,0.5-2.8,2.4-2.7c1.7,0,3.8-0.5,4.5,1.9c0.4,1.2,0.5,2.5,1.1,3.7
		c0.3,0.7,1.1,1.2,1.7,1.9c0.6-0.6,1.4-1.1,1.8-1.8c0.5-0.9,0.5-2,0.8-2.9c0.8-2.5,3.6-3.6,5.8-2.4c0.5,0.3,1.1,1.2,1.1,1.8
		c0.1,3.5,0,7-0.1,10.4c0,1.4-0.8,2.2-2.2,1.9c-1.5-0.3-1.2-1.4-1-2.5c0.3-1.7,0.5-3.5-1.4-4.3c-1.1-0.5-2.3,1.1-2.9,3.9
		c-0.2,0.5,0,1.1-0.3,1.5c-0.4,0.5-1,1.3-1.5,1.4c-0.6,0.1-1.5-0.5-1.9-1c-0.5-1-0.8-2.2-1.2-3.2c-0.3-0.8-0.5-1.8-0.8-2.5
		c-0.2-0.5-1-1-1.5-0.9c-0.5,0.1-1.2,0.8-1.2,1.2c-0.1,1.4,0,2.8,0.2,4.2c0.1,1.1,0.2,2.2-1.2,2.3c-1.5,0.2-2.1-0.8-2.1-2.1
		C479.4,364.7,479.5,363,479.4,361.4L479.4,361.4z"/>
	<path class="st0" d="M461.2,353.9c6.1,0,9.2,2.8,8.8,8c-0.3,4.2-4.1,7.4-8.8,7.4c-4.9,0-7.9-2.7-8-7.4
		C452.9,356.1,455.2,353.9,461.2,353.9z M465.5,361.2c-0.1-2.2-2.4-4.6-4.5-4.4c-2.1,0.2-4,2.2-4,4.4c0,2.1,2.3,4.6,4.2,4.7
		C463.1,366,465.5,363.3,465.5,361.2z"/>
	<path class="st0" d="M435.4,361c0.2-7.3-1.5-7.3,7.7-7c4.2,0.2,6.1,2.5,6.2,6.7c0.1,4.9-1.8,7.3-5.9,7.8
		C435.6,369.4,435.4,369.2,435.4,361z M441.1,357.1c-1.9,0.1-2.7,1.2-2.6,4.2c0.1,2.8,0.8,4,2.6,4c2.2,0,4.3-2.1,4.3-4.2
		C445.4,359.1,443.2,357,441.1,357.1z"/>
	<path class="st0" d="M521.1,361c0.2-7.6-1.2-7.2,7.4-7.1c4.8,0.1,6.3,3,3.6,7c-1.2,1.8-0.5,3.1,0.2,4.6c0.5,0.8,2.2,1.9,0.4,2.8
		c-1.3,0.7-2.8,0.1-3.6-1.4c-0.4-0.8-0.6-1.9-1.2-2.3c-0.7-0.5-1.8-0.6-2.7-0.9c-0.2,0.8-0.5,1.6-0.4,2.4c0.2,1,0.8,2.1-0.8,2.3
		c-1.3,0.2-2.4-0.3-2.6-1.7C521.2,364.9,521.2,363,521.1,361z M524.1,358.4c1.4,1.1,2.2,2.1,3,2.2c1.3,0.3,2.5-0.5,2.8-1.9
		c0.2-1.2-1.2-2.5-2.5-2.2C526.4,356.6,525.6,357.5,524.1,358.4z"/>
	<path class="st0" d="M517.8,367.4c-0.7,0.5-1.3,1.2-1.8,1.1c-1.1-0.2-2.2-0.7-3.2-1.2c-2-1-3.9-1.2-5.8,0.2
		c-0.4,0.3-0.8,0.8-1.3,0.8c-1.1,0.1-2.2-0.1-3.3-0.2c0.2-0.8,0.2-1.7,0.5-2.5c1.2-3.2,2.3-6.3,3.6-9.3c1-2.5,5.1-3.3,6.2-1.2
		C514.7,358.9,516.1,363.1,517.8,367.4z M509.9,357.8c-0.9,1.7-1.7,2.5-1.8,3.5c-0.2,1.3,0.8,2.2,2.2,1.9c0.8-0.2,2-1.3,1.9-1.8
		C512,360.3,511,359.5,509.9,357.8z"/>
	<path class="st0" d="M403.6,353.9c1,0.1,2.1,0,3.1,0.2c0.5,0.2,0.8,0.8,1.2,1.2c-0.5,0.5-1,1.3-1.5,1.4c-0.8,0.1-1.7-0.6-2.5-0.6
		c-0.8,0-2.1,0.5-2.2,0.8c-0.2,0.8,0.2,2.1,0.8,2.6c0.7,0.6,1.9,0.7,2.9,1.1c2.2,1,3.2,2.3,3,4.4c-0.2,2.1-1.5,3.1-3.3,3.8
		c-2.4,0.8-4.6,0.3-6.7-0.5c-0.5-0.2-1.1-1.3-0.9-1.7c0.2-0.5,1.1-1.1,1.7-1.1c0.8,0,1.7,0.8,2.5,0.7c0.8-0.1,1.7-0.8,2.5-1.2
		c-0.5-0.8-0.8-1.8-1.4-2.4c-0.6-0.5-1.7-0.6-2.5-1c-2.2-0.9-2.9-2.3-2.6-4.6c0.3-2,1.3-2.9,3.7-3.1
		C402.2,353.8,402.9,353.9,403.6,353.9C403.6,353.9,403.6,353.9,403.6,353.9z"/>
	<path class="st0" d="M412.2,361.5c0-0.4-0.1-0.8,0-1.2c0.2-2,0.5-3.9,0.8-5.9c2.5-0.1,5.1-0.2,7.6-0.3c0.3,0,0.6,0.6,0.9,0.9
		c-0.4,0.3-0.7,0.8-1.1,0.9c-1.2,0.2-2.3,0.2-3.4,0.5c-0.6,0.2-1.5,1.1-1.4,1.5c0.2,0.7,0.8,1.5,1.5,1.9c1.2,0.8,3.2-0.5,3.9,1.5
		c-1.3,0.2-2.7,0.2-3.8,0.8c-0.8,0.4-1.5,1.5-1.5,2.3c-0.1,0.5,1,1.5,1.7,1.6c1.2,0.3,2.5,0.2,3.8,0.3c0.4,0.1,0.8,0.5,1.2,0.8
		c-0.3,0.4-0.5,1-0.8,1.1c-2.5,0.2-5.1,0.2-7.6,0.1c-0.5,0-1.3-1.2-1.4-1.9c-0.2-1.6-0.1-3.3-0.1-5
		C412.3,361.5,412.3,361.5,412.2,361.5z"/>
	<path class="st0" d="M543.2,354c1.5,0,3.1-0.2,4.6,0.1c0.5,0.1,1.2,0.8,1.4,1.4c0.1,0.3-0.6,1.2-1,1.3c-3.5,0.4-3.4,2.9-3.3,5.4
		c0.1,1.4,0,2.8,0,4.2c-0.1,1.6-1,2.2-2.5,2.1c-1.6-0.2-1.7-1.2-1.5-2.5c0.2-1.5,0.2-3,0.3-4.6c0.1-2.1-0.5-3.7-2.7-4.5
		c-0.6-0.2-1-1.2-1.5-1.8c0.7-0.4,1.4-1.1,2.2-1.2C540.3,353.9,541.8,353.9,543.2,354L543.2,354z"/>
	<path class="st0" d="M426.3,361.4c0-1.8,0-3.6,0-5.4c0-1.5,0.9-2,2.2-2c1.2,0,2,0.6,2,1.9c0.1,3.6,0.1,7.2,0,10.7
		c0,1.5-0.9,2-2.3,1.9c-1.5,0-1.9-0.8-1.9-2.2C426.5,364.7,426.4,363.1,426.3,361.4L426.3,361.4z"/>
	<path class="st0" d="M389,353.9c3.3,0.1,4.1,2.5,4.9,5c0.6,1.9,0.2,3.5-1.3,4.9c-1.1,0.9-8.6,0.8-9.6-0.2c-1.2-1.3-1.2-2.8-0.3-4.2
		c0.8-1.3,1.9-2.5,3.8-1.9c1.6,0.5,3.3,0.8,2.8,3.2c-0.2,0.6,0.7,1.4,1.1,2.1c0.8-0.6,2-1.1,2.1-1.8c0.2-1.2-0.1-2.5-0.6-3.6
		C391.3,356.2,390,355.1,389,353.9L389,353.9z M389,360.7c-1.5-0.9-2.2-1.8-3-1.9c-1.3-0.2-2.3,0.8-2.2,2c0.1,0.8,1.2,2.2,1.6,2
		C386.5,362.6,387.3,361.7,389,360.7z"/>
	<path class="st0" d="M383.6,353.9c-0.8,0.8-1.8,1.5-2.6,2.2c-2.4,2.3-2.8,6.2-1,8.8c2,2.9,5.8,4.2,8.8,2.9c0.6-0.2,1.1-0.7,1.7-0.8
		c0.2-0.1,0.6,0.2,0.9,0.3c-0.2,0.3-0.3,0.8-0.5,0.9c-4.2,2.6-10.8,0.5-12.8-4C376.2,359.8,378.7,355.2,383.6,353.9L383.6,353.9z"/>
	<path class="st0" d="M389.1,353.9c-1.8,0-3.6,0-5.4,0l0,0C385.5,353,387.3,353,389.1,353.9L389.1,353.9z"/>
</g>
</a>
<g id="top">
	<path class="st0" d="M263.3,169.5c-8.3,0.7-14.9-2.9-18.9-10.2c-5.6-10.1-3.2-24.3,10.4-29.1c6.4-2.3,13-2.2,19.2,0.5
		c7.6,3.3,11.2,9.7,11.4,17.8c0.3,12.8-9.9,21.6-19.8,21C265,169.5,264.3,169.5,263.3,169.5z M272.5,149.6c-0.1-6-5.2-10.9-10-10.1
		c-3.6,0.6-6,2.9-7,6.4c-1,3.8-0.9,7.5,2.1,10.4c2.6,2.5,5.8,3.3,9.2,1.6C270.6,156.1,272.5,153.1,272.5,149.6z"/>
	<path class="st0" d="M336.7,149c0-5.2,0-10.3,0-15.5c0-3.8,0.2-3.9,3.9-3.7c1.6,0.2,3.4,0.2,4.9-0.2c2.6-0.5,4.2,0.5,5.3,2.6
		c2.4,4.6,4.8,9.1,7.2,13.6c0.2,0.2,0.2,0.5,0.2,0.8c0.5,1.4,1.3,2.8,3,2.3c1.7-0.5,1.2-1.9,1-3.2c-0.4-4.5-0.8-9-1-13.4
		c-0.1-2.5,0.3-2.8,2.9-2.7c1.6,0.1,3.3-0.2,4.9-0.2c2.9-0.1,3.5,0.5,3.5,3.6c0.1,7.2,0,14.4,0,21.6c0,3.6,0.1,7.2,0,10.8
		c-0.1,2.5-0.4,2.9-2.9,3c-1.9,0.1-3.9-0.2-5.8,0.1c-3.4,0.4-5.3-1.2-6.6-4c-2-4-4.2-8-6.3-11.9c-0.2-0.5-0.4-1-0.8-1.3
		c-0.5-0.4-1.4-1-1.9-0.8c-0.5,0.2-1.1,1.2-1.1,1.8c0,2.9,0.2,5.6,0.3,8.5c0.1,1.8,0.2,3.6,0.3,5.4c0.1,1.6-0.8,2.3-2.4,2.4
		c-0.2,0-0.5,0-0.8,0c-10.1,0.1-8.1,0.6-8.3-7.7C336.6,157.1,336.7,153.1,336.7,149L336.7,149z"/>
	<path class="st0" d="M381.5,149c0-5.4-0.1-10.7,0-16.1c0-2.9,0.3-3,3.1-2.9c5.5,0.2,11,0.1,16.5,0.3c4.5,0.2,8.7,1.4,12.1,4.3
		c1.5,1.3,2.9,2.9,3.9,4.7c4.3,8.3,2.5,18.7-4.2,24.6c-3.6,3.2-8.2,4.4-12.7,4.7c-5.3,0.4-10.5,0.2-15.8,0.1c-2.5,0-2.7-0.4-2.8-3.1
		C381.5,160.1,381.5,154.5,381.5,149z M407,149.3c0.4-7-6.4-9.7-11-9.7c-2,0-2.9,1.5-2.9,3.7c0.1,3.8,0.1,7.6,0,11.4
		c0,2.1,0.7,3.2,2.6,3.6C401.6,159.5,407,155.1,407,149.3z"/>
	<path class="st0" d="M397.4,262.9c-10.7,0.9-17.3-8-17.5-17.2c-0.1-4.9-0.5-9.7,1.8-14.3c2.2-4.6,5.3-8,10.4-8.7
		c3.2-0.5,6.4-0.7,9.5-0.3c6.6,0.8,12,7.1,12.2,13.8c0.2,3.9,0.3,7.9,0,11.8C413.1,257.5,407,262.9,397.4,262.9z M402.6,242.8
		c-0.5-2.5-0.8-4.7-1.5-6.9c-0.8-2.4-2.5-3.4-4.2-3.2c-1.7,0.2-3.2,1.6-3.7,3.9c-0.4,1.8-0.8,3.6-0.8,5.3c0.2,2.5,0.5,5.1,1.2,7.5
		c0.5,1.7,1.4,3.5,3.6,3.4c2-0.1,2.9-1.5,3.5-3.1C401.4,247.5,401.9,245.2,402.6,242.8z"/>
	<path class="st0" d="M328.7,143.8c0,3.1-0.1,6.2,0,9.3c0.2,7-4.5,13.4-10.9,15.8c-0.2,0.1-0.2,0.2-0.4,0.2
		c-5.5,0.8-11,1.5-16.4-0.6c-4.6-1.7-7.2-5.3-8.3-10c-0.6-2.5-0.8-5.1-0.8-7.6c-0.2-5.8-0.1-11.6,0-17.4c0-3.5,0.3-3.8,3.7-3.9
		c1.5-0.1,3.1-0.1,4.6,0c3.4,0.1,3.8,0.5,3.8,3.8c0.1,5.3,0,10.5,0,15.8c0,0.8,0,1.5,0,2.3c0.2,4.3,2.7,7.3,6.3,7.3
		c3.2-0.1,6.1-3.4,6.1-7.2c0.1-4.1,0-8.3,0-12.4c0-2.2-0.1-4.4,0-6.6c0.1-2.6,0.4-2.8,2.9-2.7c1.9,0.1,3.9,0.1,5.8-0.1
		c2.8-0.2,3.2,0,3.3,2.8C328.8,136.4,328.7,140.1,328.7,143.8L328.7,143.8z"/>
	<path class="st0" d="M525,149.3c0-5.4,0-10.8,0-16.1c0-3.2,0.2-3.2,3.2-3.2c1.5,0.1,3.1-0.1,4.6-0.2c3.2-0.3,3.6,0,3.6,3.3
		c0,2.7-0.2,5.4-0.2,8.1c0,0.8,0.3,1.6,0.5,2.4c0.8-0.4,2.1-0.5,2.6-1.1c2.5-3.1,4.9-6.3,7-9.7c1.5-2.5,3.6-3.5,6.4-3.2
		c2.6,0.2,5.3,0.2,8,0.2c0.5,0,0.9,0.3,1.3,0.5c-0.2,0.5-0.2,1-0.5,1.3c-2.5,3.1-5.1,6.1-7.6,9.1c-1.2,1.5-2.4,3-3.6,4.5
		c-1.7,2.2-1.8,2.9-0.2,5.1c3.9,5.3,8,10.7,11.9,16.1c1.2,1.7,1.1,2.2-0.9,2.3c-3.3,0.1-6.6,0-10,0.1c-2.1,0-3.3-1.2-4.3-2.7
		c-1.9-2.9-3.9-5.8-5.8-8.7c-0.5-0.6-0.8-1.4-1.3-1.9c-0.8-0.7-1.9-1.2-2.8-1.7c-0.1,1.1-0.3,2.1-0.3,3.2c-0.1,3.2-0.1,6.4-0.2,9.6
		c0,1.4-0.8,2.1-2.2,2.2c-2.1,0.1-4.1,0.1-6.2,0c-2.7-0.1-3-0.4-3.1-3.2C524.9,160.1,525,154.7,525,149.3L525,149.3z"/>
	<path class="st0" d="M513.7,168.7c-1.2,0-2.3,0-3.5,0c-2.1,0.1-3.5-0.6-3.9-2.9c-0.4-2.1-1.9-3-3.9-3.1c-2.7-0.2-5.4-0.2-8.1-0.1
		c-1.9,0-3.2,1.2-3.7,2.9c-0.8,2.7-2.8,3.4-5.4,3.2c-2.1-0.2-4.1,0-6.2-0.1c-2.4-0.1-2.5-0.3-1.7-2.4c4.5-11.4,9-22.6,13.5-34
		c0.8-2,2-2.6,4.2-2.3c2.2,0.3,4.6,0.2,6.9-0.1c2.2-0.3,3.4,0.4,4.2,2.3c1.3,3.2,2.8,6.3,4,9.6c2.9,7.6,5.7,15.1,8.6,22.7
		c0.3,0.7,0.5,1.5,0.8,2.2c0.5,1.3,0,2-1.4,2.1C516.7,168.7,515.2,168.7,513.7,168.7C513.7,168.7,513.7,168.7,513.7,168.7z
		 M497.9,154.1c3.6-0.1,4.3-0.9,3.4-3.9c-0.5-1.5-0.8-3.2-1.5-4.7c-0.3-0.7-1.1-1.7-1.7-1.7c-0.5-0.1-1.5,0.9-1.8,1.6
		c-0.8,1.9-1.3,3.9-1.9,5.8c-0.5,1.5-0.1,2.5,1.5,2.9C496.7,154.1,497.6,154.1,497.9,154.1z"/>
	<path class="st0" d="M460.3,169.5c-9,0.5-15.7-3.3-19.2-11.4c-5.4-12.3-0.1-27.8,17.3-29.4c3.9-0.3,7.7,0,11.4,1.5
		c1.3,0.5,2.5,1.2,3.7,2c1.2,0.8,1.2,1.9,0.3,2.9c-0.9,1.1-1.8,2.2-2.6,3.3c-2.7,3.3-2.7,3.4-6.6,1.6c-3-1.4-5.9-0.9-8.4,0.9
		c-2.9,2.2-3.9,5.4-3.6,8.9c0.6,6.8,6.7,10.1,12.9,7.3c3-1.5,3.1-1.5,5,1c0.9,1.2,1.9,2.4,2.8,3.7c1.5,2.3,1.5,3.2-0.8,4.7
		c-2.3,1.6-4.9,2.9-7.8,2.9C463.1,169.5,461.7,169.5,460.3,169.5z"/>
	<path class="st0" d="M204.6,149c0-5.4-0.1-10.8,0-16.1c0-3,0.2-2.9,3.1-2.9c4.2,0.1,8.4-0.2,12.7-0.2c3.9,0,7.6,0.3,11.1,2.3
		c3.2,1.8,4.9,4.4,5.3,8c0.5,4.7,0.2,9.2-4,12.6c-2.5,2-5.3,2.3-8.3,2.8c-1.4,0.2-2.8,0.1-4.2,0.2c-3.5,0.2-4,0.6-4.1,4
		c-0.1,2.1,0.1,4.1,0,6.2c-0.1,2.5-0.5,2.8-3,2.9c-1.8,0.1-3.6,0.1-5.4,0c-2.8-0.2-3.1-0.4-3.1-3.2C204.6,160,204.6,154.4,204.6,149
		z M219.5,138.7c-2.5,0-3.3,1-3.2,4c0.1,2.9,1.2,4.2,3.7,4.2c2.6-0.1,5.1-2.1,5.2-4.2C225.1,140.4,222.6,138.6,219.5,138.7z"/>
	<path class="st0" d="M581.7,168.7c-3.5,0-7,0.1-10.4,0c-2.6-0.1-2.8-0.5-2.8-2.9c0.1-11,0.2-22.1,0.1-33.1c0-2.7,0.3-3,3-3
		c6.6,0.1,13.1,0.1,19.6,0c2.5,0,3.2,0.2,3.2,2.5c-0.2,7.6,2.2,7-6.6,7.1c-1.8,0-3.6,0-5.4,0.1c-1.6,0.1-2.7,0.8-2.7,2.6
		c0,1.7,1,2.6,2.6,2.6c2.9,0.1,5.9,0.1,8.9-0.1c1.7-0.1,2.2,0.5,2.4,2.1c0.7,6.8,0.3,7.3-6.4,7.3c-1.7,0-3.3,0-5,0
		c-1.5,0.1-2.5,0.6-2.5,2.2c0,1.5,1,2.3,2.5,2.5c1,0.1,2.1,0.1,3.1,0.1c2.5,0,5.2-0.1,7.7,0.1c2.3,0.1,2.5,0.5,2.5,2.9
		c-0.1,1.4,0,2.8,0,4.2c0.1,2.3-0.2,2.7-2.5,2.8C589.1,168.8,585.4,168.7,581.7,168.7L581.7,168.7z"/>
	<path class="st0" d="M356.6,223.3c2.9-0.1,3.4,0.3,3,3.2c-0.2,1.5-0.8,3-1.1,4.5c-0.3,1.3,0,2.3,1.5,2.6c1.3,0.2,2.4-0.3,2.7-1.6
		c0.5-1.9,0.6-3.8,1-5.6c0.5-2.8,3.6-4.3,5.9-2.9c0.5,0.3,0.8,1.3,0.8,1.9c-0.1,1.6-0.5,3.3-0.7,4.9c-0.2,1.6,0,3.2,2.1,3.5
		c2.2,0.4,1.9,2.2,1.9,3.6c0,1.5-0.8,2.3-2.4,2.4c-0.6,0.1-1.5,0.1-1.9,0.5c-0.7,0.8-1.6,1.8-1.7,2.7c-0.1,0.7,1,1.9,1.7,2.1
		c2.5,0.4,2.7,1.9,2.5,3.9c-0.1,1.3-0.5,2.3-1.9,2.4c-2.8,0.2-3.7,1.9-3.7,4.4c0,0.8-0.4,1.5-0.4,2.2c-0.3,4.5-2.4,4.2-5.9,4
		c-1.3-0.1-1.8-0.8-1.5-2.1c0.4-1.8,0.8-3.6,1-5.3c0.2-1.3,0-2.8-1.7-2.9c-1.5-0.2-2.4,1-2.6,2.3c-0.3,1.8-0.2,3.6-0.4,5.3
		c-0.2,2.3-1.2,2.9-4.1,2.7c-2.2-0.2-2.6-0.5-2.5-2.9c0.1-1.4,0.4-2.8,0.8-4.1c0.5-1.7,0.1-2.9-1.5-3.3c-2.3-0.6-2.5-2.2-2.4-4.1
		c0.1-1.4,0.7-2.2,2.1-2.2c0.6-0.1,1.5,0,1.9-0.4c0.8-0.9,1.6-2,1.9-3.1c0.1-0.5-1.2-1.7-1.9-1.9c-2.3-0.5-2.3-2-2.3-3.8
		c0-1.9,1-2.5,2.7-2.5c1.9-0.1,2.7-1.3,3-2.9c0.2-1.2,0.4-2.5,0.5-3.8C353.1,223.4,353.1,223.4,356.6,223.3z M361.1,241.6
		c-0.5-0.4-1.2-1.5-2-1.5c-1.5-0.2-2.2,1.1-2.4,2.5c-0.2,1.3,0.5,2.2,1.9,2.5C359.9,245.2,361.1,244,361.1,241.6z"/>
	<path class="st0" d="M446.8,242.8c0,5.2,0,10.3,0,15.5c0,3.4-0.4,3.7-3.8,3.8c-2.2,0.1-4.4,0-6.6-0.1c-1.5-0.1-2.2-0.8-2.1-2.5
		c0.2-6.4,0.2-12.8,0.3-19.2c0-0.8,0.1-1.5-0.1-2.3c-0.3-1.6-1.3-2-2.8-1.1c-1.5,1-3.4,2.9-4.7,2.6c-1.5-0.4-2.4-2.8-3.6-4.3
		c-0.3-0.4-0.6-0.8-0.9-1.2c-1.2-1.4-0.9-2.5,0.6-3.5c3.2-2,6.2-4.2,9.4-6c1.4-0.8,3.1-1.1,4.7-1.2c2-0.2,4.1-0.1,6.1-0.2
		c2.9-0.2,3.4,0.2,3.4,3.2C446.8,231.8,446.8,237.3,446.8,242.8L446.8,242.8z"/>
</g>
</svg>
