<?xml version="1.0" encoding="utf-8"?>
<!-- Generator: Adobe Illustrator 27.4.1, SVG Export Plug-In . SVG Version: 6.00 Build 0)  -->
<svg version="1.1" id="base" xmlns="http://www.w3.org/2000/svg" xmlns:xlink="http://www.w3.org/1999/xlink" x="0px" y="0px"
	 viewBox="0 0 800 800" style="enable-background:new 0 0 800 800;" xml:space="preserve">
<style type="text/css">
	.st0{fill:#FFFFFF;}
</style>
<g id="illust">
	<path class="st0" d="M395.4,677.1c-1.4,0-2.9,0.2-4.2-0.1c-4.3-0.8-8.4,0.4-12.5,1.4c-6.3,1.5-12.7,1.4-19.1,0
		c-0.4-0.1-0.7-0.2-1.1-0.3c-2.8-0.6-3.6-0.1-3.6,2.7c0,1.3-0.1,2.5,0.1,3.9c0.3,3.5-0.8,6.6-2.3,9.6c-0.7,1.4-2,2.8-3.3,3.6
		c-4.8,2.9-9.7,5.8-15.3,7.1c-6.6,1.6-13.1,3.8-19.7,5.3c-3.9,0.9-8.1,1.1-12.2,1.4c-2.7,0.2-4.6-1.5-6.3-3.2
		c-6.8-6.7-10.8-14.8-11.8-24.4c-0.5-5.5,1.9-9.2,5.9-12.2c4.5-3.4,9.2-6.6,13.9-9.7c1.7-1.1,2.4-2.3,2.6-4.3
		c0.5-4.2,1.2-8.3,1.9-12.5c0.5-2.8,1.5-5.5,2-8.3c1.1-6.3,5-10.2,10.7-11.9c5.5-1.6,11.2-2.5,16.9-3.4c2.2-0.3,4.6,0.5,6.9,0.8
		c1.6,0.2,3.3,0.5,4.9,0.4c1-0.1,2.4-0.5,3-1.3c4-5.1,9.6-8.2,14.9-11.4c5.1-3.2,10.4-6,15.8-8.8c2.4-1.2,5-1.9,7.6-2.8
		c13.8-4.8,27.1-11,40.4-17.2c7-3.2,13.8-7,20.5-10.7c5.3-2.9,10.9-3.7,16.7-4.2c3.2-0.2,6.4-0.4,9.6-1c9-1.8,16.2,1,21.5,8.5
		s9.9,15.3,10.5,24.9c0.3,4.7,0.8,9.4,1.3,14.1c0.2,2.5-0.8,4.5-2.9,5.9c-3.2,2.2-6.3,4.6-9.5,6.5c-10.7,6.3-21.3,12.4-32.1,18.4
		c-17.3,9.7-34.8,18.8-53.2,26.3c-3.6,1.5-6.8,3.6-10.3,5.3c-1.3,0.6-2.9,0.9-4.3,1.2c-1.2,0.2-2.5,0.1-3.9,0.1
		C395.4,676.9,395.4,677,395.4,677.1z M501.6,608.7c-0.3-2-0.8-4.1-0.8-6.1c0.2-5.4-2.3-10-4.7-14.4c-1.8-3.3-2.5-3.3-5.6-1.2
		c-6.6,4.7-13.1,9.4-19.8,14c-3.4,2.3-7,4.3-10.5,6.5c-5.4,3.2-10.7,6.8-16.2,9.7c-9.7,4.9-19.6,9.5-29.5,14.2
		c-0.7,0.3-1.5,0.5-2.2,0.8c-4.9,2.1-9.9,4.2-14.8,6.3c-1.9,0.8-2.8,2.2-2.1,4.3c0.5,1.7,1.2,3.4,1.5,5.2c1,4.6,2.2,9.2,2.9,13.9
		c0.4,2.8,0.8,3.3,3.6,2.2c2.9-1.2,5.6-2.5,8.5-3.7c6.3-2.8,12.7-5.3,19-8.3c4.7-2.2,9.3-5,13.9-7.5c5.5-2.9,11-5.5,16.5-8.5
		c8.3-4.6,16.4-9.6,24.6-14.4c4.2-2.5,8.5-4.8,12.7-7.2C500.7,613.2,502,611.4,501.6,608.7z M473.6,574.6c-3.2,0.4-5.6,0.2-7.6,1.1
		c-7.2,3.1-14.4,6.1-21.2,10c-11.2,6.5-22.9,11.4-34.9,16.2c-11,4.3-22.3,8-32.3,14.5c-0.8,0.5-1.9,0.8-2.9,1.2
		c-1.2,0.4-2.8,0.8-2.5,2.4c0.2,0.8,1.4,1.8,2.3,2.1c5.1,1.7,9.6,4.4,13.7,7.8c1.6,1.3,2.7,1.2,4.4,0.2c4-2.2,8.2-4.2,12.4-6.3
		c2.3-1.1,4.8-1.8,7.2-2.8c5.6-2.5,11.3-4.9,16.9-7.5c1.4-0.6,2.8-1.3,4.1-2.1c6.3-3.7,12.4-7.7,19-11c6.6-3.2,12.5-7.5,18.5-11.7
		c4-2.8,8-5.5,12-8.3c0.6-0.5,1.6-1.5,1.5-1.9c-0.3-0.8-1.2-1.7-2-1.9C479.1,575.9,476,575.2,473.6,574.6z M343.3,683.3
		c0-4.6-1.6-8.8-3.5-12.9c-2.2-4.8-3.6-5.6-8.7-4.5c-3.6,0.8-7.3,1.5-10.9,2.5c-4.5,1.2-8.9,2.4-13.3,3.8c-2.7,0.8-4.6,2.7-5.6,5.4
		c-1,2.9-2.2,5.7-3.1,8.7c-0.3,1-0.1,2.3,0.3,3.3c3.2,8.3,10.5,11.4,19.8,10.5c3.6-0.3,7.1-1,10.7-1.4
		C337.5,697.6,343.3,691.4,343.3,683.3z M364.3,669.3c1.3-0.3,3.2-1.1,5.3-1.2c3-0.2,4.2-2,4.7-4.7c0.5-3,1-6.1,1.6-9
		c0.7-3.4,0.2-4.2-3.2-5.2c-11-2.9-22.1-5.9-33.1-8.9c-4.2-1.2-8.4-2.2-12.7-3.2c-3.7-0.8-6.2,0.8-7.2,4.4c-1.2,4.5-2.3,9-3.5,13.4
		c-0.8,3.1-0.2,3.7,3,3.1c4.4-0.9,8.8-1.7,13.2-2.8c5.4-1.3,9.6,0.7,13,4.6c1.5,1.8,2.7,3.7,4.2,5.6c0.6,0.8,1.4,1.9,2.2,2
		C355.8,668.2,359.7,668.7,364.3,669.3z"/>
</g>
<g id="other">
	<g id="top">
		<path class="st0" d="M263.3,217.9c-8.3,0.7-14.9-2.9-18.9-10.2c-5.6-10.1-3.2-24.3,10.4-29.1c6.4-2.3,13-2.2,19.2,0.5
			c7.6,3.3,11.2,9.7,11.4,17.8c0.3,12.8-9.9,21.6-19.8,21C265,217.9,264.3,217.9,263.3,217.9z M272.5,198c-0.1-6-5.2-10.9-10-10.1
			c-3.6,0.6-6,2.9-7,6.4c-1,3.8-0.9,7.5,2.1,10.4c2.6,2.5,5.8,3.3,9.2,1.6C270.6,204.5,272.5,201.5,272.5,198z"/>
		<path class="st0" d="M336.7,197.4c0-5.2,0-10.3,0-15.5c0-3.8,0.2-3.9,3.9-3.7c1.6,0.2,3.4,0.2,4.9-0.2c2.6-0.5,4.2,0.5,5.3,2.6
			c2.4,4.6,4.8,9.1,7.2,13.6c0.2,0.2,0.2,0.5,0.2,0.8c0.5,1.4,1.3,2.8,3,2.3s1.2-1.9,1-3.2c-0.4-4.5-0.8-9-1-13.4
			c-0.1-2.5,0.3-2.8,2.9-2.7c1.6,0.1,3.3-0.2,4.9-0.2c2.9-0.1,3.5,0.5,3.5,3.6c0.1,7.2,0,14.4,0,21.6c0,3.6,0.1,7.2,0,10.8
			c-0.1,2.5-0.4,2.9-2.9,3c-1.9,0.1-3.9-0.2-5.8,0.1c-3.4,0.4-5.3-1.2-6.6-4c-2-4-4.2-8-6.3-11.9c-0.2-0.5-0.4-1-0.8-1.3
			c-0.5-0.4-1.4-1-1.9-0.8s-1.1,1.2-1.1,1.8c0,2.9,0.2,5.6,0.3,8.5c0.1,1.8,0.2,3.6,0.3,5.4c0.1,1.6-0.8,2.3-2.4,2.4
			c-0.2,0-0.5,0-0.8,0c-10.1,0.1-8.1,0.6-8.3-7.7C336.6,205.5,336.7,201.5,336.7,197.4L336.7,197.4z"/>
		<path class="st0" d="M381.5,197.4c0-5.4-0.1-10.7,0-16.1c0-2.9,0.3-3,3.1-2.9c5.5,0.2,11,0.1,16.5,0.3c4.5,0.2,8.7,1.4,12.1,4.3
			c1.5,1.3,2.9,2.9,3.9,4.7c4.3,8.3,2.5,18.7-4.2,24.6c-3.6,3.2-8.2,4.4-12.7,4.7c-5.3,0.4-10.5,0.2-15.8,0.1
			c-2.5,0-2.7-0.4-2.8-3.1C381.5,208.5,381.5,202.9,381.5,197.4z M407,197.7c0.4-7-6.4-9.7-11-9.7c-2,0-2.9,1.5-2.9,3.7
			c0.1,3.8,0.1,7.6,0,11.4c0,2.1,0.7,3.2,2.6,3.6C401.6,207.9,407,203.5,407,197.7z"/>
		<path class="st0" d="M397.4,311.3c-10.7,0.9-17.3-8-17.5-17.2c-0.1-4.9-0.5-9.7,1.8-14.3c2.2-4.6,5.3-8,10.4-8.7
			c3.2-0.5,6.4-0.7,9.5-0.3c6.6,0.8,12,7.1,12.2,13.8c0.2,3.9,0.3,7.9,0,11.8C413.1,305.9,407,311.3,397.4,311.3z M402.6,291.2
			c-0.5-2.5-0.8-4.7-1.5-6.9c-0.8-2.4-2.5-3.4-4.2-3.2c-1.7,0.2-3.2,1.6-3.7,3.9c-0.4,1.8-0.8,3.6-0.8,5.3c0.2,2.5,0.5,5.1,1.2,7.5
			c0.5,1.7,1.4,3.5,3.6,3.4c2-0.1,2.9-1.5,3.5-3.1C401.4,295.9,401.9,293.6,402.6,291.2z"/>
		<path class="st0" d="M328.7,192.2c0,3.1-0.1,6.2,0,9.3c0.2,7-4.5,13.4-10.9,15.8c-0.2,0.1-0.2,0.2-0.4,0.2
			c-5.5,0.8-11,1.5-16.4-0.6c-4.6-1.7-7.2-5.3-8.3-10c-0.6-2.5-0.8-5.1-0.8-7.6c-0.2-5.8-0.1-11.6,0-17.4c0-3.5,0.3-3.8,3.7-3.9
			c1.5-0.1,3.1-0.1,4.6,0c3.4,0.1,3.8,0.5,3.8,3.8c0.1,5.3,0,10.5,0,15.8c0,0.8,0,1.5,0,2.3c0.2,4.3,2.7,7.3,6.3,7.3
			c3.2-0.1,6.1-3.4,6.1-7.2c0.1-4.1,0-8.3,0-12.4c0-2.2-0.1-4.4,0-6.6c0.1-2.6,0.4-2.8,2.9-2.7c1.9,0.1,3.9,0.1,5.8-0.1
			c2.8-0.2,3.2,0,3.3,2.8C328.8,184.8,328.7,188.5,328.7,192.2L328.7,192.2z"/>
		<path class="st0" d="M525,197.7c0-5.4,0-10.8,0-16.1c0-3.2,0.2-3.2,3.2-3.2c1.5,0.1,3.1-0.1,4.6-0.2c3.2-0.3,3.6,0,3.6,3.3
			c0,2.7-0.2,5.4-0.2,8.1c0,0.8,0.3,1.6,0.5,2.4c0.8-0.4,2.1-0.5,2.6-1.1c2.5-3.1,4.9-6.3,7-9.7c1.5-2.5,3.6-3.5,6.4-3.2
			c2.6,0.2,5.3,0.2,8,0.2c0.5,0,0.9,0.3,1.3,0.5c-0.2,0.5-0.2,1-0.5,1.3c-2.5,3.1-5.1,6.1-7.6,9.1c-1.2,1.5-2.4,3-3.6,4.5
			c-1.7,2.2-1.8,2.9-0.2,5.1c3.9,5.3,8,10.7,11.9,16.1c1.2,1.7,1.1,2.2-0.9,2.3c-3.3,0.1-6.6,0-10,0.1c-2.1,0-3.3-1.2-4.3-2.7
			c-1.9-2.9-3.9-5.8-5.8-8.7c-0.5-0.6-0.8-1.4-1.3-1.9c-0.8-0.7-1.9-1.2-2.8-1.7c-0.1,1.1-0.3,2.1-0.3,3.2c-0.1,3.2-0.1,6.4-0.2,9.6
			c0,1.4-0.8,2.1-2.2,2.2c-2.1,0.1-4.1,0.1-6.2,0c-2.7-0.1-3-0.4-3.1-3.2C524.9,208.5,525,203.1,525,197.7L525,197.7z"/>
		<path class="st0" d="M513.7,217.1c-1.2,0-2.3,0-3.5,0c-2.1,0.1-3.5-0.6-3.9-2.9c-0.4-2.1-1.9-3-3.9-3.1c-2.7-0.2-5.4-0.2-8.1-0.1
			c-1.9,0-3.2,1.2-3.7,2.9c-0.8,2.7-2.8,3.4-5.4,3.2c-2.1-0.2-4.1,0-6.2-0.1c-2.4-0.1-2.5-0.3-1.7-2.4c4.5-11.4,9-22.6,13.5-34
			c0.8-2,2-2.6,4.2-2.3s4.6,0.2,6.9-0.1c2.2-0.3,3.4,0.4,4.2,2.3c1.3,3.2,2.8,6.3,4,9.6c2.9,7.6,5.7,15.1,8.6,22.7
			c0.3,0.7,0.5,1.5,0.8,2.2c0.5,1.3,0,2-1.4,2.1C516.7,217.1,515.2,217.1,513.7,217.1L513.7,217.1z M497.9,202.5
			c3.6-0.1,4.3-0.9,3.4-3.9c-0.5-1.5-0.8-3.2-1.5-4.7c-0.3-0.7-1.1-1.7-1.7-1.7c-0.5-0.1-1.5,0.9-1.8,1.6c-0.8,1.9-1.3,3.9-1.9,5.8
			c-0.5,1.5-0.1,2.5,1.5,2.9C496.7,202.5,497.6,202.5,497.9,202.5z"/>
		<path class="st0" d="M460.3,217.9c-9,0.5-15.7-3.3-19.2-11.4c-5.4-12.3-0.1-27.8,17.3-29.4c3.9-0.3,7.7,0,11.4,1.5
			c1.3,0.5,2.5,1.2,3.7,2s1.2,1.9,0.3,2.9c-0.9,1.1-1.8,2.2-2.6,3.3c-2.7,3.3-2.7,3.4-6.6,1.6c-3-1.4-5.9-0.9-8.4,0.9
			c-2.9,2.2-3.9,5.4-3.6,8.9c0.6,6.8,6.7,10.1,12.9,7.3c3-1.5,3.1-1.5,5,1c0.9,1.2,1.9,2.4,2.8,3.7c1.5,2.3,1.5,3.2-0.8,4.7
			c-2.3,1.6-4.9,2.9-7.8,2.9C463.1,217.9,461.7,217.9,460.3,217.9z"/>
		<path class="st0" d="M204.6,197.4c0-5.4-0.1-10.8,0-16.1c0-3,0.2-2.9,3.1-2.9c4.2,0.1,8.4-0.2,12.7-0.2c3.9,0,7.6,0.3,11.1,2.3
			c3.2,1.8,4.9,4.4,5.3,8c0.5,4.7,0.2,9.2-4,12.6c-2.5,2-5.3,2.3-8.3,2.8c-1.4,0.2-2.8,0.1-4.2,0.2c-3.5,0.2-4,0.6-4.1,4
			c-0.1,2.1,0.1,4.1,0,6.2c-0.1,2.5-0.5,2.8-3,2.9c-1.8,0.1-3.6,0.1-5.4,0c-2.8-0.2-3.1-0.4-3.1-3.2
			C204.6,208.4,204.6,202.8,204.6,197.4z M219.5,187.1c-2.5,0-3.3,1-3.2,4c0.1,2.9,1.2,4.2,3.7,4.2c2.6-0.1,5.1-2.1,5.2-4.2
			C225.1,188.8,222.6,187,219.5,187.1z"/>
		<path class="st0" d="M581.7,217.1c-3.5,0-7,0.1-10.4,0c-2.6-0.1-2.8-0.5-2.8-2.9c0.1-11,0.2-22.1,0.1-33.1c0-2.7,0.3-3,3-3
			c6.6,0.1,13.1,0.1,19.6,0c2.5,0,3.2,0.2,3.2,2.5c-0.2,7.6,2.2,7-6.6,7.1c-1.8,0-3.6,0-5.4,0.1c-1.6,0.1-2.7,0.8-2.7,2.6
			c0,1.7,1,2.6,2.6,2.6c2.9,0.1,5.9,0.1,8.9-0.1c1.7-0.1,2.2,0.5,2.4,2.1c0.7,6.8,0.3,7.3-6.4,7.3c-1.7,0-3.3,0-5,0
			c-1.5,0.1-2.5,0.6-2.5,2.2c0,1.5,1,2.3,2.5,2.5c1,0.1,2.1,0.1,3.1,0.1c2.5,0,5.2-0.1,7.7,0.1c2.3,0.1,2.5,0.5,2.5,2.9
			c-0.1,1.4,0,2.8,0,4.2c0.1,2.3-0.2,2.7-2.5,2.8C589.1,217.2,585.4,217.1,581.7,217.1L581.7,217.1z"/>
		<path class="st0" d="M356.6,271.7c2.9-0.1,3.4,0.3,3,3.2c-0.2,1.5-0.8,3-1.1,4.5c-0.3,1.3,0,2.3,1.5,2.6c1.3,0.2,2.4-0.3,2.7-1.6
			c0.5-1.9,0.6-3.8,1-5.6c0.5-2.8,3.6-4.3,5.9-2.9c0.5,0.3,0.8,1.3,0.8,1.9c-0.1,1.6-0.5,3.3-0.7,4.9s0,3.2,2.1,3.5
			c2.2,0.4,1.9,2.2,1.9,3.6c0,1.5-0.8,2.3-2.4,2.4c-0.6,0.1-1.5,0.1-1.9,0.5c-0.7,0.8-1.6,1.8-1.7,2.7c-0.1,0.7,1,1.9,1.7,2.1
			c2.5,0.4,2.7,1.9,2.5,3.9c-0.1,1.3-0.5,2.3-1.9,2.4c-2.8,0.2-3.7,1.9-3.7,4.4c0,0.8-0.4,1.5-0.4,2.2c-0.3,4.5-2.4,4.2-5.9,4
			c-1.3-0.1-1.8-0.8-1.5-2.1c0.4-1.8,0.8-3.6,1-5.3c0.2-1.3,0-2.8-1.7-2.9c-1.5-0.2-2.4,1-2.6,2.3c-0.3,1.8-0.2,3.6-0.4,5.3
			c-0.2,2.3-1.2,2.9-4.1,2.7c-2.2-0.2-2.6-0.5-2.5-2.9c0.1-1.4,0.4-2.8,0.8-4.1c0.5-1.7,0.1-2.9-1.5-3.3c-2.3-0.6-2.5-2.2-2.4-4.1
			c0.1-1.4,0.7-2.2,2.1-2.2c0.6-0.1,1.5,0,1.9-0.4c0.8-0.9,1.6-2,1.9-3.1c0.1-0.5-1.2-1.7-1.9-1.9c-2.3-0.5-2.3-2-2.3-3.8
			c0-1.9,1-2.5,2.7-2.5c1.9-0.1,2.7-1.3,3-2.9c0.2-1.2,0.4-2.5,0.5-3.8C353.1,271.8,353.1,271.8,356.6,271.7z M361.1,290
			c-0.5-0.4-1.2-1.5-2-1.5c-1.5-0.2-2.2,1.1-2.4,2.5c-0.2,1.3,0.5,2.2,1.9,2.5C359.9,293.6,361.1,292.4,361.1,290z"/>
		<path class="st0" d="M446.8,291.2c0,5.2,0,10.3,0,15.5c0,3.4-0.4,3.7-3.8,3.8c-2.2,0.1-4.4,0-6.6-0.1c-1.5-0.1-2.2-0.8-2.1-2.5
			c0.2-6.4,0.2-12.8,0.3-19.2c0-0.8,0.1-1.5-0.1-2.3c-0.3-1.6-1.3-2-2.8-1.1c-1.5,1-3.4,2.9-4.7,2.6c-1.5-0.4-2.4-2.8-3.6-4.3
			c-0.3-0.4-0.6-0.8-0.9-1.2c-1.2-1.4-0.9-2.5,0.6-3.5c3.2-2,6.2-4.2,9.4-6c1.4-0.8,3.1-1.1,4.7-1.2c2-0.2,4.1-0.1,6.1-0.2
			c2.9-0.2,3.4,0.2,3.4,3.2C446.8,280.2,446.8,285.7,446.8,291.2L446.8,291.2z"/>
	</g>
	<path class="st0" d="M329.7,454.9c0,1.8,0,3.5,0,5.3c0,1-0.6,1.4-1.5,1.4s-1.6-0.3-1.6-1.3c0-1.5,0-3-0.1-4.5
		c0-0.6-0.4-1.1-0.6-1.7c-0.4,0.5-0.8,1-1.1,1.6c-0.6,1.4-1.1,2.8-1.5,4.2c-0.3,1-0.6,1.7-1.9,1.7c-1.2,0-1.7-0.9-2-1.7
		c-0.6-1.7-1-3.4-1.5-5c-0.1-0.3-0.6-0.5-0.9-0.7c-0.2,0.3-0.4,0.7-0.5,1c-0.1,1.6,0,3.3,0,4.9c0,1.2-0.7,1.7-1.8,1.6
		c-1.1,0-1.4-0.7-1.4-1.6c0-3.4,0-6.8,0-10.2c0-1.1,0.4-1.7,1.6-1.8c3.2-0.3,3.6,0,4.7,3c0.5,1.4,1.1,2.7,1.7,4
		c1.5-0.8,1.4-2.5,1.8-3.8c1.2-3.2,1.8-3.6,4.9-3.2c1,0.1,1.4,0.6,1.5,1.6c0,0.1,0,0.3,0,0.4C329.7,451.6,329.7,453.2,329.7,454.9
		L329.7,454.9z"/>
	<path class="st0" d="M457.2,454.8c0-1.5,0-3,0-4.5c0-0.9-0.3-2,1-2.3c1.7-0.4,3.2,0,3.9,1.2c0.9,1.5,1.8,3,2.7,4.5
		c0.2,0.3,0.5,0.6,0.8,0.9c0.1-0.3,0.4-0.7,0.4-1c0.1-1.4,0-2.7,0.1-4.1c0-1,0.4-1.5,1.5-1.5c1.2,0,1.8,0.5,1.8,1.7
		c0,3.3,0.1,6.5,0,9.8c0,0.7-0.4,1.8-0.9,1.9c-1.1,0.4-2.4,0.6-3.3-0.8c-0.9-1.5-1.8-3-2.7-4.5c-0.1-0.2-0.5-0.5-0.6-0.4
		c-0.3,0.2-0.6,0.5-0.6,0.8c-0.1,1.1,0,2.2-0.1,3.3c-0.1,1.7-0.6,2-2.4,1.9c-1-0.1-1.5-0.5-1.5-1.5
		C457.2,458.4,457.2,456.6,457.2,454.8L457.2,454.8z"/>
	<path class="st0" d="M472.7,454.4c0-1.6,0-3.3,0-4.9c0-1,0.5-1.6,1.5-1.5c2.3,0.2,4.6,0.3,6.8,0.7c2.7,0.5,4.2,2.3,4.6,5
		s-1.1,5.6-3.4,6.8c-2.6,1.3-5.5,1.3-8.3,0.9c-0.4,0-1-0.9-1-1.4C472.6,458.2,472.7,456.3,472.7,454.4z M476.6,454.7
		c0,2.5,0.4,3.1,2.1,3c1.9-0.1,2.9-1,2.9-2.6c0-2.1-1.2-3.4-3.1-3.3C476.9,451.9,476.6,452.4,476.6,454.7z"/>
	<path class="st0" d="M439.9,454.7c0.7,3.4-3.5,6.9-7.4,6.9s-6.9-3.2-7.2-6.9c-0.3-2.9,3.1-6.5,7.3-6.7
		C436.4,447.9,439.8,451.1,439.9,454.7z M435.8,454.8c0-1.5-1.9-3-3.7-2.9c-1.4,0.1-2.7,1.5-2.7,3c0,1.7,1.4,3,3.1,3
		C434.1,457.7,435.8,456.2,435.8,454.8z"/>
	<path class="st0" d="M387.7,419.8c0-2.8,0.9-4.7,3.1-6.1c2.3-1.4,4.5-0.6,6.5,0.4s2,3.2,2.2,5c0.3,2.4-0.4,4.9-2.6,6.4
		s-4.9,1.3-6.8-0.2C388.2,423.8,388.1,421.6,387.7,419.8z M395.5,419.7c-0.1-0.6-0.1-1.1-0.4-1.6s-0.8-1-1.3-1.2
		c-0.3-0.1-0.9,0.4-1.2,0.8c-0.4,0.5-0.6,1.2-0.7,1.8c-0.2,1.4,1,3.2,2,3C395.5,422.3,395.1,420.7,395.5,419.7z"/>
	<path class="st0" d="M322.4,418.1c0-1.1,0-2.2,0-3.2c0.1-1.7,0.5-2,2.3-1.9c1.2,0,1.7,0.6,1.7,1.8c0,1.5,0,3,0,4.5
		c0,0.8,0,1.8,0.4,2.3c0.5,0.6,1.5,1.1,2.3,1.1c0.5,0,1.3-1,1.3-1.6c0.2-2,0.1-4.1,0.1-6.1c0-1.4,0.5-2,1.9-1.9
		c1.2,0,2.1,0.3,2.1,1.8c0,2.3,0.1,4.6,0,6.9c-0.2,2.7-3,4.9-6,5c-3.1,0-5.9-2.3-6.1-5.2C322.4,420.2,322.4,419.1,322.4,418.1z"/>
	<path class="st0" d="M398.4,454.8c0-2.8,0.9-4.7,3.1-6c2.3-1.4,4.5-0.6,6.5,0.4s2,3.3,2.2,5c0.3,2.4-0.4,4.9-2.6,6.4
		s-4.9,1.3-6.8-0.3C398.8,458.9,398.7,456.7,398.4,454.8z M406.1,454.8c-0.1-0.5-0.1-1.1-0.4-1.5c-0.3-0.5-0.8-1.2-1.2-1.3
		c-0.5,0-1.1,0.6-1.4,1.1c-0.3,0.4-0.5,1-0.5,1.5c-0.2,1.4,1,3.1,1.9,3.1C405.2,457.7,406.1,456.2,406.1,454.8z"/>
	<path class="st0" d="M442.4,453.1c0-1,0-1.9,0-2.9c0.1-2,0.5-2.4,2.4-2.2c1,0.1,1.5,0.5,1.5,1.5c0,2,0,4.1,0,6.1
		c0,1.2,0.4,2.1,1.8,2.1c1.3,0,2.1-0.7,2.2-1.9c0.2-1.9,0.1-3.8,0.1-5.7c0.1-1.9,0.4-2.1,2.1-2.1c1.5,0,1.9,0.7,1.8,2
		c0,1.9,0.1,3.8,0,5.7c-0.2,2.5-1.2,4.3-3.7,5.3c-2.8,1.1-5.1,0.4-7.2-1.3c-0.7-0.6-1-1.9-1.2-2.9
		C442.3,455.6,442.4,454.3,442.4,453.1L442.4,453.1z"/>
	<path class="st0" d="M345.2,452.9c0,1,0.1,1.9,0,2.9c-0.2,2.5-1.2,4.3-3.7,5.3c-2.8,1.1-5.1,0.4-7.2-1.3c-0.7-0.6-1.1-1.9-1.2-2.9
		c-0.2-2.3,0-4.6-0.1-6.9c0-1.5,0.7-1.8,2-1.8c1.4,0,2,0.5,2,1.9c-0.1,1.9,0,3.8,0,5.7c0,1,0.2,1.9,1.4,2.1c1.3,0.2,2.5-0.5,2.6-1.9
		c0.2-2,0.1-4.1,0.1-6.1c0-1.2,0.6-1.7,1.7-1.7c1.8,0,2.1,0.2,2.2,2C345.2,451,345.2,451.9,345.2,452.9z"/>
	<path class="st0" d="M413,420.1c0.3,1.8-0.3,3.5-1.9,4.8c-3.2,2.7-7.3,1.8-8.9-2.1c-1-2.3-0.9-4.7,0.4-7c1.2-2.1,3.7-3.3,5.8-2.8
		c3,0.7,4.5,2.3,4.7,5.3C413,418.8,413,419.3,413,420.1z M409,420.1c0-0.7,0.1-1.2,0-1.5c-0.3-0.6-0.9-1.2-1.3-1.7
		c-0.6,0.5-1.3,0.9-1.8,1.4c-0.2,0.2-0.2,0.8-0.2,1.2c-0.1,1.8,0.6,3.1,1.8,3.1C409.3,422.4,408.8,420.9,409,420.1z"/>
	<path class="st0" d="M412.3,454.8c0-1.8,0-3.5,0-5.3c0-1,0.4-1.6,1.4-1.5c2.3,0.2,4.6,0.2,6.8,0.7c2,0.4,3.2,2.3,3,4.2
		c-0.2,1.8-0.8,3.4-2.9,3.9c-0.7,0.2-1.3,0.6-1.9,0.6c-1.6,0.1-2.5,0.7-2.4,2.4c0.1,1.9-1.2,1.7-2.5,1.7c-1.4,0-1.5-0.9-1.5-1.9
		C412.3,458.1,412.3,456.4,412.3,454.8L412.3,454.8z M418,451.6c-0.6,0.5-1,0.9-1.4,1.3c0.4,0.3,0.9,0.8,1.2,0.7
		c0.5-0.1,1-0.6,1.5-0.9C418.9,452.4,418.5,452,418,451.6z"/>
	<path class="st0" d="M372.3,426.5c-0.9-0.3-2.1-0.5-3.2-1.1c-1.9-1-2.2-2.4-0.8-4.3c0.5-0.7,1.2-1.1,0.6-2.4
		c-1.7-3.5-0.8-4.9,2.9-5.7c2.2-0.5,4.1,0.3,5.4,2c0.5,0.7,0.6,2.1,0.3,3c-0.4,1-1.1,1.6,0.1,2.6c0.8,0.7,1.1,1.8,0.5,3
		C377.3,425.3,374.9,426.6,372.3,426.5z M375,421.6c-1.2-0.4-1.8-0.7-2.3-0.7c-0.4,0-0.7,0.6-1.1,0.9c0.5,0.3,1.1,0.7,1.6,0.7
		C373.6,422.6,374.1,422.2,375,421.6z M373,418.9c0.5-0.5,0.9-0.9,1.3-1.3c-0.4-0.2-0.9-0.7-1.2-0.7c-0.5,0.1-0.9,0.6-1.4,0.9
		C372,418.1,372.4,418.4,373,418.9z"/>
	<path class="st0" d="M337.9,419.6c0-0.5,0-1.1,0-1.6c0.1-1.6,0.3-3.1,0.5-4.7c2.3-0.1,4.6-0.2,6.8-0.1c0.3,0,0.7,1.3,0.8,2
		c0,0.5-0.5,1.3-1,1.5c-0.7,0.3-1.6,0.1-2.4,0.2c-0.3,0-0.6,0.3-0.9,0.5c0.4,0.2,0.7,0.4,1.1,0.4c0.5,0.1,1.1,0.1,1.6,0.1
		c1.2,0,1.6,0.6,1.6,1.8c0,1.3-0.4,2.1-1.8,2c-0.5,0-1.1,0-1.6,0.1c-0.3,0.1-0.6,0.4-0.9,0.5c0.4,0.1,0.7,0.4,1.1,0.4
		c0.7,0.1,1.4,0.1,2,0c1.3-0.1,2,0.4,2,1.8c0,1.3-0.4,1.9-1.8,2c-7.1,0.6-7.1,0.6-7.1-6.6C337.9,419.9,337.9,419.7,337.9,419.6z"/>
	<path class="st0" d="M277.3,412.9c0.8,0,1.6,0,2.4,0c1.1,0,1.8,0.4,1.8,1.6s-0.2,2.1-1.7,2.2c-1.1,0.1-2.7-0.7-2.9,1.1
		c0,0.3,1.7,0.9,2.6,1.3c2.5,0.9,2.6,1.2,2.8,3.3c0.2,2.1-1.1,2.8-2.7,3.5c-2.4,1-5.4,0.4-7.1-1.4c-0.3-0.4-0.7-1.1-0.6-1.4
		c0.3-0.5,0.9-1.2,1.4-1.2c1.2,0,2.3,0.5,3.5,0.6c0.3,0,0.7-0.3,1-0.5c-0.3-0.4-0.5-1-0.8-1.1c-0.8-0.2-1.6-0.1-2.4-0.1
		c-2-0.1-2.2-0.3-2.2-2.5c0-0.5,0-1.1,0.1-1.6C274.2,412.5,272.6,413,277.3,412.9z"/>
	<path class="st0" d="M384.6,456.3c0.1-0.2,0.3-0.9,0.6-1.4c1.3-1.9,2.6-3.8,4-5.6c0.5-0.6,1.5-1.2,2.4-1.3c3.5-0.3,3.4,0.1,3.4,2.8
		c0,1.7-0.3,3.3,1.2,4.9c1.3,1.3-0.3,5-2.1,5.7c-0.5,0.2-1.8,0-1.8-0.3c-0.9-2.7-3.2-2-5.1-2c-0.1,0-0.3,0-0.4,0
		C384.8,459.1,384.4,458.6,384.6,456.3z M389.6,455.3c1.7,0,2.2-0.8,2.1-2c-0.1-0.4-0.5-0.7-0.8-1.1c-0.6,0.8-1.3,1.5-1.9,2.3
		C388.9,454.6,389.5,455.1,389.6,455.3z"/>
	<path class="st0" d="M297.8,426.5c-0.7,0-1.4,0.1-2,0c-1-0.1-2.4,0.5-2.7-1.1c-0.3-1.4-0.1-2.7,1.3-3.6c1.3-0.8,2.5-1.7,3.6-2.7
		c0.4-0.4,0.7-1.3,0.5-1.7c-0.4-0.9-1.3-0.8-2-0.2c-0.3,0.3-0.6,0.8-0.8,0.8c-1-0.2-2-0.6-3-0.9c0.4-0.8,0.6-1.7,1.2-2.3
		c2.3-2.3,4.6-2.5,7-1s2.8,4.1,0.8,6.2c-0.5,0.6-1.2,1.1-1.9,1.6c-0.6,0.4-0.7,0.8,0.1,1c0.5,0.1,1.1,0.1,1.6,0.2
		c1.3,0.1,1.3,1.1,1.4,2.1c0,1.2-0.5,1.7-1.7,1.7C300,426.5,298.9,426.5,297.8,426.5L297.8,426.5z"/>
	<path class="st0" d="M243,426.5c-0.8,0-1.6,0.1-2.4,0c-0.7-0.1-1.8-0.3-2.1-0.8c-0.5-1.1-0.5-2.5,0.6-3.4c1.2-1,2.6-2,3.9-2.9
		c0.7-0.5,1.3-1.2,0.7-2c-0.6-0.9-1.5-0.8-2,0c-1.3,1.8-2.4,0-3.6,0c-0.1,0-0.3-0.7-0.2-1c1.2-2.8,5.2-4.2,7.9-2.7s3.1,4.2,1.1,6.4
		c-0.4,0.4-0.8,0.7-1.2,1.1s-0.8,0.7-1.2,1.1c0.5,0.1,1,0.4,1.5,0.4c1.2,0,2.1,0.3,2.1,1.8c0,1.3-0.4,2.1-1.8,2
		C245.2,426.5,244.1,426.5,243,426.5L243,426.5z"/>
	<path class="st0" d="M252.9,421.7c1.2,0.3,2.3,0.7,3.3,0.9c0.4,0.1,0.9-0.4,1.4-0.6c-0.3-0.4-0.5-0.8-0.9-1.1
		c-0.3-0.2-0.8-0.1-1.2-0.2c-0.3-0.2-0.7-0.6-0.7-0.8c0.1-0.4,0.4-0.9,0.8-1.2c0.4-0.3,1-0.2,1.5-0.4c0.2-0.1,0.4-0.5,0.4-0.6
		c-0.1-0.3-0.5-0.8-0.7-0.8c-0.9,0.1-1.8,0.5-2.7,0.5c-0.8-0.1-1.6-0.6-2.5-0.9c0.4-0.8,0.7-1.8,1.3-2.3c2.2-1.7,5.2-1.7,7.2-0.2
		c1.7,1.2,1.9,2.1,0.9,4.1c-0.4,0.8-1,1.4-0.2,2.1c1.2,1.2,1.5,2.6,0.5,4c-1.1,1.5-2.7,2.5-4.6,2.2c-1.7-0.3-3.2-1.2-4.7-2
		c-0.5-0.3-0.7-1-1.1-1.6C251.7,422.4,252.3,422,252.9,421.7z"/>
	<path class="st0" d="M351.7,461.8c-1.1-0.4-2.1-0.7-3.1-1.3c-0.6-0.3-1-1.1-1.5-1.6c0.8-0.6,1.6-1.7,2.4-1.7
		c1.2-0.1,2.4,1.4,3.5-0.3c-1-0.6-2-1.2-3-1.7c-2.2-1.1-2.7-1.8-2.4-3.6c0.3-1.9,2.6-3.6,4.9-3.5c1.1,0.1,2.1,0.4,3.1,0.8
		c0.6,0.3,1.5,1.2,1.4,1.6c-0.2,1-0.9,2-2.2,1.8c-0.5-0.1-1.1-0.4-1.6-0.3c-0.5,0-0.9,0.4-1.4,0.6c0.3,0.4,0.6,0.8,1,1.1
		c0.9,0.5,2.1,0.8,2.9,1.4c2.2,1.6,2.1,4.3-0.3,5.6C354.4,461.1,353,461.4,351.7,461.8z"/>
	<path class="st0" d="M374.3,461.6c-3.4,0-6.4-1.9-7.4-4.8c-0.7-2-0.8-4,0.8-5.7c1.9-2.2,4.2-3.3,7.2-3c0.4,0,0.8,0.2,1.1,0.4
		c0.8,0.4,2.3,1.1,2.2,1.3c-0.4,1.2-1.3,2-2.7,2c-0.5,0-1.1-0.1-1.6,0c-1.8,0.2-3.3,1.6-3.2,3c0.1,1.4,1.6,2.6,3.4,2.9
		c1.2,0.2,2.4,0.3,3.4,0.8c1.2,0.6,1.1,1.6-0.1,2C376.2,461.1,375.1,461.4,374.3,461.6z"/>
	<path class="st0" d="M315.6,412.9c1.1,0,2.2,0,3.2,0c0.8,0,1.7,0.1,1.8,1.2c0,1,0.5,2.4-1.1,2.6c-1.9,0.1-2.1,1.2-2.1,2.7
		c0,1.9,0,3.8,0,5.7c0,1.3-0.9,1.5-1.9,1.5s-2-0.1-2-1.4c0-1.9-0.1-3.8,0-5.7c0-1.5-0.2-2.6-2.1-2.8c-1.6-0.1-1.2-1.5-1.2-2.5
		c0.1-1.1,0.9-1.2,1.8-1.2C313.2,412.9,314.4,412.9,315.6,412.9z"/>
	<path class="st0" d="M362.3,419.9c0,1.2,0,2.4,0,3.7c-0.1,2.7-0.3,3-2.1,3c-1.7,0-1.8-0.2-1.9-2.8c0-1.4,0-2.7,0-4.1
		c0-1.2-0.2-2.2-1.9-1.5c-1.4,0.5-1.6-0.8-1.8-1.6c-0.1-0.4,0.4-1.1,0.9-1.5c1-0.7,2-1.5,3.1-1.9c2.6-1,3.7-0.2,3.7,2.6
		C362.4,417.2,362.3,418.5,362.3,419.9z"/>
	<path class="st0" d="M360,454.4c0-1.6,0-3.2,0-4.9c0-1.3,0.8-1.5,1.9-1.6c1.2,0,2.1,0.2,2.1,1.7c0,3.4,0,6.8,0,10.1
		c0,1.5-0.8,1.8-2.1,1.8c-1.4,0-2-0.6-1.9-1.9C360,457.9,360,456.2,360,454.4L360,454.4z"/>
	<path class="st0" d="M287.2,422c1.3,0,2.4,1.1,2.4,2.2s-1.4,2.4-2.4,2c-0.7-0.3-1.3-1.2-1.5-2C285.5,423.2,286,422.2,287.2,422z"/>
	<path class="st0" d="M264,424.1c1.2-0.9,1.9-1.7,2.8-2.1c0.9-0.3,2.6,1.6,2.2,2.3c-0.5,0.8-1.5,1.8-2.3,1.8
		C266,426.2,265.2,425.1,264,424.1z"/>
	<path class="st0" d="M383,421.5c1,1.1,1.8,1.6,2.1,2.4c0.4,1-0.4,2.4-1.5,2.3c-0.8-0.1-2.1-0.9-2.1-1.2
		C381.6,423.9,382.3,422.9,383,421.5z"/>
	<path class="st0" d="M383.1,415.7c1,1.2,1.7,1.8,2,2.5c0.4,1-0.6,2.3-1.6,2.2c-0.8-0.1-2.1-1-2-1.3
		C381.6,418.1,382.3,417.2,383.1,415.7z"/>
	<g>
		<path class="st0" d="M357,486.7H354V486l2.8-4.7h0.8v4.8h1.1v0.5h-1.1v1.7H357V486.7z M357,482L357,482l-2.5,4.1h2.5V482z"/>
		<path class="st0" d="M359.2,484.9c0-0.3,0-0.5,0-0.8c0-0.3,0-0.5,0.1-0.8c0-0.3,0.1-0.5,0.3-0.8c0.1-0.3,0.3-0.4,0.4-0.7
			c0.1-0.3,0.4-0.4,0.7-0.4c0.3-0.1,0.5-0.1,0.8-0.1s0.7,0,0.8,0.1c0.1,0.1,0.4,0.3,0.7,0.4c0.3,0.1,0.3,0.4,0.4,0.7
			c0.1,0.3,0.1,0.5,0.3,0.8c0.1,0.3,0.1,0.5,0.1,0.8c0,0.3,0,0.5,0,0.8s0,0.5,0,0.8s-0.1,0.5-0.1,0.8s-0.1,0.5-0.3,0.8
			c-0.1,0.3-0.3,0.4-0.4,0.7s-0.4,0.4-0.7,0.4c-0.3,0.1-0.5,0.1-0.8,0.1s-0.7,0-0.8-0.1c-0.3-0.1-0.4-0.3-0.7-0.4
			c-0.3-0.1-0.3-0.4-0.4-0.7c-0.1-0.3-0.1-0.5-0.3-0.8c0-0.3-0.1-0.5-0.1-0.8S359.2,485.2,359.2,484.9z M359.8,484.9
			c0,0.1,0,0.4,0,0.7s0,0.4,0.1,0.7c0,0.3,0.1,0.4,0.1,0.7c0.1,0.3,0.1,0.4,0.3,0.5c0.1,0.1,0.3,0.3,0.4,0.4
			c0.1,0.1,0.4,0.1,0.7,0.1s0.4,0,0.7-0.1c0.3-0.1,0.4-0.3,0.4-0.4c0.1-0.1,0.3-0.4,0.3-0.5c0.1-0.3,0.1-0.4,0.1-0.7s0-0.4,0.1-0.7
			c0-0.3,0-0.4,0-0.7c0-0.1,0-0.4,0-0.7s0-0.4-0.1-0.7c0-0.3-0.1-0.4-0.1-0.7c-0.1-0.3-0.1-0.4-0.3-0.5c-0.1-0.1-0.3-0.3-0.4-0.4
			c-0.1-0.1-0.4-0.1-0.7-0.1s-0.4,0-0.7,0.1c-0.1,0.1-0.4,0.3-0.4,0.4c-0.1,0.1-0.3,0.4-0.3,0.5c-0.1,0.3-0.1,0.4-0.1,0.7
			s0,0.4-0.1,0.7C359.8,484.5,359.8,484.7,359.8,484.9z"/>
		<path class="st0" d="M369.8,480.9l0.5,0.1l-3.1,7.6l-0.5-0.1L369.8,480.9z"/>
		<path class="st0" d="M373.9,481.3h0.7v3.1l0,0l3.5-3.1h0.9l-3.6,3.2l3.7,3.9h-0.9l-3.6-3.6l0,0v3.6h-0.7L373.9,481.3L373.9,481.3z
			"/>
		<path class="st0" d="M380,481.3h0.7v7H380V481.3z"/>
		<path class="st0" d="M382.6,481.3h0.8l4.3,6.1l0,0v-6.1h0.7v7h-0.8l-4.3-6.1l0,0v6.1h-0.7V481.3z"/>
		<path class="st0" d="M395,480.9l0.5,0.1l-3.1,7.6l-0.5-0.1L395,480.9z"/>
		<path class="st0" d="M399.2,481.3h0.9l2.5,5.8l2.5-5.8h0.9v7h-0.7v-6.2l0,0l-2.7,6.2h-0.3l-2.8-6.2l0,0v6.2H399v-7H399.2z"/>
		<path class="st0" d="M410.2,481.3h0.7l2.9,7H413l-0.8-1.9h-3.7l-0.8,1.9H407L410.2,481.3z M410.5,482l-1.6,3.9h3.2L410.5,482z"/>
		<path class="st0" d="M414.9,481.3h0.8l4.3,6.1l0,0v-6.1h0.7v7h-0.8l-4.3-6.1l0,0v6.1h-0.7V481.3z"/>
		<path class="st0" d="M422.2,484.9c0-0.5,0.1-1.1,0.3-1.5c0.1-0.4,0.4-0.8,0.8-1.2c0.4-0.4,0.7-0.5,1.2-0.8
			c0.5-0.3,0.9-0.3,1.5-0.3s1.1,0.1,1.5,0.3c0.4,0.1,0.8,0.4,1.2,0.8c0.3,0.3,0.5,0.7,0.8,1.2c0.1,0.4,0.3,0.9,0.3,1.5
			c0,0.5-0.1,1.1-0.3,1.5c-0.1,0.4-0.4,0.8-0.8,1.2c-0.3,0.3-0.7,0.5-1.2,0.8c-0.4,0.1-0.9,0.3-1.5,0.3s-1.1-0.1-1.5-0.3
			c-0.4-0.1-0.8-0.4-1.2-0.8c-0.4-0.4-0.5-0.7-0.8-1.2C422.2,485.9,422.2,485.5,422.2,484.9z M422.8,484.9c0,0.4,0.1,0.8,0.3,1.2
			c0.1,0.4,0.4,0.7,0.5,0.9c0.1,0.3,0.5,0.5,0.9,0.7c0.4,0.1,0.8,0.3,1.2,0.3s0.9-0.1,1.2-0.3c0.3-0.1,0.7-0.4,0.9-0.7
			s0.4-0.7,0.5-0.9c0.1-0.4,0.3-0.8,0.3-1.2c0-0.4-0.1-0.8-0.3-1.2c-0.1-0.4-0.4-0.7-0.5-0.9c-0.3-0.3-0.5-0.5-0.9-0.7
			c-0.4-0.1-0.8-0.3-1.2-0.3s-0.9,0.1-1.2,0.3c-0.4,0.1-0.7,0.4-0.9,0.7s-0.4,0.7-0.5,0.9C422.8,484,422.8,484.4,422.8,484.9z"/>
		<path class="st0" d="M430.8,481.3h0.9l2.5,5.8l2.5-5.8h0.9v7H437v-6.2l0,0l-2.7,6.2h-0.3l-2.8-6.2l0,0v6.2h-0.7v-7H430.8z"/>
		<path class="st0" d="M441.8,481.3h0.7l2.9,7h-0.8l-0.8-1.9h-3.7l-0.8,1.9h-0.7L441.8,481.3z M442.2,482l-1.6,3.9h3.2L442.2,482z"
			/>
	</g>
</g>
<a xlink:href="https://www.instagram.com/seido_mart/" target="_blank">
<g id="seidomart">
	<rect x="416.6" y="406.5" width="152.3" height="30.8"/>
	<path class="st0" d="M503.6,419.6c0-1.2-0.1-2.5,0-3.7c0.1-0.9,0.2-2.5,0.5-2.6c1.4-0.4,2.9-0.3,4.4-0.2c0.2,0,0.5,0.6,0.7,0.9
		c0.2,0.5,0.4,1,0.6,1.5c0.6,1.4,1.2,2.9,1.9,4.3c0.6-1.4,1.4-2.8,1.9-4.2c1-2.6,2.6-3.5,5.2-2.6c0.5,0.2,1,1,1,1.5
		c0.1,3.5,0,7.1,0,10.6c0,1.1-0.7,1.4-1.6,1.4c-0.9,0-1.6-0.3-1.6-1.4c0-1.8,0-3.5-0.1-5.3c0-0.3-0.4-0.6-0.6-0.8
		c-0.1,0-0.5,0.2-0.6,0.5c-0.7,1.8-1.2,3.6-1.9,5.3c-0.3,0.6-0.9,1.4-1.5,1.6c-1,0.4-1.8-0.3-2.2-1.3c-0.5-1.5-0.9-3.1-1.4-4.7
		c-0.2-0.6-0.8-1-1.1-1.5c-0.1,0.5-0.4,1-0.4,1.5c-0.1,1.5,0,3,0,4.5c0,0.9-0.4,1.5-1.4,1.6c-1.2,0.1-1.8-0.4-1.8-1.6
		C503.7,423.1,503.7,421.3,503.6,419.6C503.7,419.6,503.7,419.6,503.6,419.6z"/>
	<path class="st0" d="M466.9,419.7c0-1.8,0-3.5,0-5.3c0-1,0.4-1.6,1.4-1.5c2.4,0.2,4.9,0.2,7.1,0.8c2.7,0.7,4.1,3,4.3,5.8
		c0.2,2.6-1.6,5.5-4.3,6.2c-2.3,0.6-4.8,0.6-7.1,0.8c-1,0.1-1.4-0.5-1.4-1.5C466.9,423.2,466.9,421.5,466.9,419.7z M470.9,419.8
		c0,2.2,0.3,2.7,1.5,2.8c1.6,0.1,3.4-1.4,3.4-2.8c0.1-1.4-1.6-3-3.3-3C471.2,416.8,470.8,417.5,470.9,419.8z"/>
	<path class="st0" d="M496.2,419.6c0.6,3.1-3,6.6-7.1,6.9c-3.9,0.3-7.2-3.1-7.6-6.9c-0.3-2.8,3.1-6.5,7.4-6.6
		C492.8,412.8,496.2,416.1,496.2,419.6z M492.1,419.7c0-1.5-1.9-3-3.7-2.9c-1.4,0.1-2.7,1.5-2.7,3c0,1.8,1.4,3,3.1,2.9
		S492.1,421.1,492.1,419.7z"/>
	<path class="st0" d="M538,419.6c0-1.6,0-3.3,0-4.9c-0.1-1.4,0.6-2,2-1.9c2.3,0.2,4.6,0.2,6.8,0.9c2.3,0.7,3.2,3.5,1.6,5.1
		c-1.7,1.7-1.2,3-0.2,4.6c0.4,0.7,0.9,1.4,1.3,2.1c0.5,0.8,0,0.9-0.6,0.9c-2.1,0.2-4.1,0.1-4.8-2.5c-0.1-0.3-0.2-0.5-0.4-0.7
		c-0.3-0.4-0.8-0.7-1.1-1.1c-0.2,0.5-0.4,0.9-0.5,1.4c-0.1,0.7,0.1,1.5-0.2,2c-0.4,0.5-1.3,0.8-2,0.9c-0.8,0.1-1.7,0-1.8-1.1
		C538,423.4,538,421.5,538,419.6L538,419.6z M545.6,418.4c-0.8-0.7-1.2-1.5-1.6-1.5c-0.7,0-1.6,0.3-1.9,0.8
		c-0.5,0.8,0.2,1.6,1.1,1.6C543.9,419.3,544.6,418.8,545.6,418.4z"/>
	<path class="st0" d="M529.1,412.9c1.2-0.1,2.2,0.2,2.7,1.6c1.3,3.4,2.6,6.8,3.9,10.2c0.5,1.3,0,1.9-1.2,1.7c-1-0.1-2.1-0.4-3-0.9
		c-1.8-0.9-3.6-1.1-5.3,0c-0.3,0.2-0.6,0.6-1,0.7c-1,0.1-2.1,0-3.2,0c0.2-0.9,0.3-1.7,0.6-2.6c1-2.9,2.1-5.8,3.2-8.7
		C526.7,413,526.9,412.9,529.1,412.9z M529,421.5c0.5-0.6,1-1.1,1-1.3c-0.3-0.8-0.8-1.5-1.2-2.2c-0.3,0.7-0.8,1.4-0.9,2.1
		C527.8,420.4,528.5,420.8,529,421.5z"/>
	<path class="st0" d="M427.2,426.8c-1.6-0.6-3.4-0.9-4.8-1.9c-4.3-3-3.6-8.2,0.9-10.9c4.3-2.6,9.2,0.2,10.4,3.7c0.6,1.7,0,3-1,4.1
		c-1,1-2.2,2.2-3.9,0.8c-0.3-0.3-1.1-0.4-1.4-0.2c-1.4,1.2-2.6,0.7-3.5-0.4c-0.9-1-1.4-2.3-0.6-3.7c0.3-0.5,0.5-1,0.6-1.5
		c0-0.2-0.2-0.6-0.3-0.6c-0.2,0-0.6,0.1-0.7,0.2c-2.2,2.2-1.7,5.9,1.1,7.1c1.3,0.6,2.9,0.6,4.3,0.8c0.9,0.1,1.9,0.1,2.8,0.2
		c0.1,0,0.3,0.2,0.3,0.2c0,0.2-0.1,0.6-0.2,0.7C430,425.9,428.7,426.3,427.2,426.8z M427,417.2c-0.8,1-1.4,1.5-1.6,2.2
		c-0.1,0.4,0.4,1.3,0.9,1.4c1,0.3,1.4-0.5,1.4-1.4C427.7,418.9,427.4,418.3,427,417.2z M429.7,418.9c0.5,0.7,1,1.3,1.4,1.9
		c0.4-0.5,1-1.1,1-1.6c0-0.7-0.6-1.4-0.9-2.1C430.8,417.6,430.3,418.1,429.7,418.9z M428,415.2c-0.2,0.2-0.4,0.4-0.6,0.5
		c0.2,0.1,0.4,0.3,0.7,0.3c0.2,0,0.5-0.2,0.7-0.3C428.5,415.5,428.2,415.3,428,415.2z"/>
	<path class="st0" d="M448.2,419.3c0-1.6,0-3.3,0-4.9c0-1,0.5-1.5,1.5-1.5c1.9,0,3.8,0,5.7,0c1.2,0,1.7,0.6,1.6,1.8c0,1,0,2-1.4,2
		c-0.8,0-1.6,0-2.4,0.1c-0.2,0-0.4,0.3-0.7,0.4c0.2,0.2,0.4,0.4,0.6,0.4c0.5,0.1,1.1,0.1,1.6,0.1c1.3,0,1.5,0.9,1.5,1.9
		c0,1.1-0.3,1.9-1.6,1.9c-0.3,0-0.6,0-0.8,0c-0.4,0.2-0.9,0.4-1.3,0.6c0.5,0.2,1,0.3,1.5,0.4c0.4,0.1,0.8,0,1.2,0
		c1.5-0.1,1.8,0.8,1.8,2.1c0,1.2-0.6,1.6-1.7,1.7C448.1,427.3,448.1,427.3,448.2,419.3z"/>
	<path class="st0" d="M439.8,426.6c-0.9-0.4-2-0.6-2.9-1.1c-0.6-0.3-1.4-0.9-1.6-1.6c-0.2-0.8,1.7-2,2.7-1.8
		c0.8,0.1,1.6,0.4,2.3,0.4c0.3,0,0.8-0.4,0.8-0.7c0.1-0.2-0.3-0.7-0.6-0.9c-1-0.5-2-0.8-3-1.3c-2.3-1.2-2.5-3.5-0.7-5.3
		c2-1.9,5.5-2.1,7.8-0.3c0.3,0.3,0.6,1.1,0.5,1.3c-0.4,0.7-1,1.5-1.7,1.6c-1.1,0.2-2.9-1.1-3.2,0.2c-0.4,1.7,1.9,1.2,2.9,2
		c1.3,0.9,2.5,1.7,2.3,3.5c-0.2,1.7-1.3,2.6-2.9,3C441.8,426.1,440.9,426.3,439.8,426.6z"/>
	<path class="st0" d="M556.4,412.9c1.1,0,2.2,0,3.2,0s1.9,0.2,1.9,1.5c0,1.1,0.1,2.3-1.5,2.3c-1.4,0.1-1.8,1-1.8,2.2
		c0,1.5,0,3,0,4.5c0,2.9-0.2,3.1-1.9,3.1c-1.8,0-2-0.3-2.1-3c0-1.6,0-3.2,0-4.9c0-1.1-0.4-1.9-1.6-1.9c-1.1-0.1-1.7-0.6-1.7-1.7
		c0-1.2,0.2-2.1,1.7-2.1C553.9,412.9,555.1,412.9,556.4,412.9L556.4,412.9z"/>
	<path class="st0" d="M463.6,419.7c0,1.6,0,3.2,0,4.9c0,1.3-0.5,2-1.9,2c-1.2,0-2.1-0.2-2.1-1.7c0-3.4,0-6.8,0-10.1
		c0-1.5,0.8-1.7,2.1-1.8c1.4,0,1.9,0.6,1.9,1.9C463.5,416.5,463.6,418.1,463.6,419.7z"/>
	<rect x="435.8" y="430.1" class="st0" width="124.7" height="2"/>
</g>
</a>
</svg>
