<?xml version="1.0" standalone="no"?>
<!DOCTYPE svg PUBLIC "-//W3C//DTD SVG 20010904//EN"
 "http://www.w3.org/TR/2001/REC-SVG-20010904/DTD/svg10.dtd">
<svg version="1.0" xmlns="http://www.w3.org/2000/svg"
 width="806.000000pt" height="806.000000pt" viewBox="0 0 806.000000 806.000000"
 preserveAspectRatio="xMidYMid meet">
<metadata>
Created by potrace 1.14, written by Peter Selinger 2001-2017
</metadata>
<g transform="translate(0.000000,806.000000) scale(0.100000,-0.100000)"
fill="#000000" stroke="none">
<path d="M0 4030 l0 -4030 4030 0 4030 0 0 4030 0 4030 -4030 0 -4030 0 0
-4030z m6822 2206 c131 -41 181 -75 293 -202 97 -110 150 -191 204 -314 18
-41 48 -96 67 -122 37 -52 84 -212 103 -348 60 -434 64 -528 24 -605 -45 -86
-179 -187 -473 -355 -282 -161 -334 -192 -489 -284 -86 -51 -232 -135 -326
-186 -93 -51 -183 -102 -199 -113 -16 -11 -123 -67 -239 -124 -115 -57 -268
-137 -340 -177 -128 -72 -470 -246 -482 -246 -3 0 -63 -26 -133 -59 -70 -32
-176 -78 -237 -101 -192 -75 -388 -169 -425 -205 -60 -58 -54 -57 -380 -56
-69 0 -147 0 -175 0 -27 0 -90 -10 -140 -24 -203 -53 -231 -58 -375 -62 -128
-4 -164 -1 -303 25 -86 16 -159 27 -161 25 -2 -2 0 -23 5 -46 13 -66 10 -186
-6 -254 -25 -108 -92 -254 -133 -291 -36 -32 -245 -144 -372 -198 -36 -15
-121 -44 -190 -65 -69 -20 -151 -47 -182 -58 -31 -11 -94 -25 -140 -30 -46 -5
-112 -19 -148 -29 -171 -52 -346 -82 -480 -82 -85 0 -89 1 -147 39 -32 22 -72
55 -88 73 -16 18 -59 67 -97 109 -79 88 -156 211 -192 307 -49 130 -86 306
-86 406 0 84 3 99 32 157 39 78 148 189 233 239 33 19 76 48 95 65 51 44 162
123 249 176 l76 46 7 104 c8 135 25 221 98 502 65 249 89 312 140 370 41 47
159 124 225 148 87 30 248 69 288 69 22 0 80 10 131 21 105 25 191 23 416 -11
74 -11 140 -20 146 -20 6 0 16 17 22 38 23 76 156 181 455 360 244 145 247
147 442 245 164 82 257 120 640 262 215 80 312 121 505 210 80 37 192 87 250
112 144 62 235 108 370 190 93 56 549 281 623 306 45 16 263 47 372 52 66 4
145 11 175 17 232 45 291 44 452 -6z"/>
<path d="M6235 5930 c-113 -9 -148 -19 -271 -76 -361 -168 -512 -243 -616
-308 -129 -79 -208 -119 -401 -202 -84 -36 -204 -91 -267 -121 -117 -57 -344
-148 -550 -223 -337 -122 -575 -230 -826 -376 -171 -99 -174 -78 27 -176 144
-70 267 -144 378 -225 14 -10 27 -5 81 29 99 63 347 174 485 218 34 11 129 52
395 172 129 59 557 273 602 302 29 18 98 57 153 87 55 29 155 87 222 129 66
41 169 102 228 135 58 33 161 99 228 147 67 48 181 129 252 179 72 51 170 121
218 157 l89 66 -34 12 c-18 6 -70 26 -114 43 -94 35 -153 42 -279 31z"/>
<path d="M6926 5602 c-2 -4 -86 -66 -187 -137 -100 -72 -257 -185 -348 -252
-91 -67 -227 -157 -301 -199 -74 -43 -198 -117 -275 -164 -77 -48 -169 -102
-205 -120 -36 -18 -96 -52 -135 -75 -83 -50 -377 -201 -525 -270 -360 -166
-517 -236 -558 -249 -124 -37 -318 -123 -427 -189 l-70 -42 4 -44 c3 -45 17
-101 71 -281 38 -126 68 -268 76 -361 4 -38 8 -69 10 -69 1 0 74 32 161 71 87
39 212 93 278 119 238 95 519 230 770 369 94 52 251 134 350 182 99 49 237
121 307 161 70 40 171 97 225 127 54 30 179 102 278 161 99 59 248 145 330
193 229 131 342 199 392 236 51 38 49 16 24 201 -6 41 -17 129 -26 194 -11 83
-23 134 -40 165 -13 25 -41 84 -63 131 -50 109 -99 169 -116 142z"/>
<path d="M1640 3980 c-8 -5 -24 -10 -36 -10 -11 0 -28 -6 -37 -12 -20 -16
-126 -426 -134 -522 l-6 -69 29 6 c16 3 94 19 174 35 366 76 436 77 566 13 79
-39 87 -47 161 -144 43 -56 93 -125 111 -154 31 -48 35 -51 65 -46 18 3 106
-10 196 -28 l163 -32 91 21 c51 12 113 24 139 27 26 3 50 10 53 14 5 8 36 187
70 394 8 54 13 102 10 106 -2 5 -19 11 -37 15 -36 7 -187 47 -518 136 -118 32
-332 88 -475 125 -143 37 -307 79 -365 95 -125 34 -199 44 -220 30z"/>
<path d="M1825 3069 c-90 -25 -242 -55 -325 -64 -36 -4 -110 -22 -165 -40 -55
-18 -131 -42 -170 -54 -86 -26 -160 -78 -181 -129 -9 -20 -29 -64 -45 -97 -16
-33 -34 -85 -39 -115 -5 -30 -17 -72 -26 -92 -16 -36 -16 -41 5 -104 52 -158
166 -256 355 -304 94 -24 158 -25 286 -5 52 8 145 22 205 30 198 28 282 62
377 153 103 98 152 241 129 374 -6 35 -11 78 -11 94 0 33 -132 321 -161 353
-17 18 -31 21 -92 20 -40 0 -103 -9 -142 -20z"/>
</g>
</svg>
